<svg xmlns="http://www.w3.org/2000/svg" viewBox="0 0 48 48" width="48" height="48">
  <defs>
    <linearGradient id="bg" x1="0" y1="0" x2="48" y2="48" gradientUnits="userSpaceOnUse">
      <stop offset="0%" stop-color="#60A5FA"/>
      <stop offset="45%" stop-color="#3B82F6"/>
      <stop offset="100%" stop-color="#1D4ED8"/>
    </linearGradient>
    <linearGradient id="hi" x1="0" y1="0" x2="0" y2="24" gradientUnits="userSpaceOnUse">
      <stop offset="0%" stop-color="#fff" stop-opacity=".55"/>
      <stop offset="60%" stop-color="#fff" stop-opacity="0"/>
    </linearGradient>
  </defs>
  <rect x="1" y="1" width="46" height="46" rx="11" fill="url(#bg)"/>
  <rect x="1" y="1" width="46" height="14" rx="11" fill="url(#hi)"/>
  <g fill="#fff">
    <path d="M11.5 9.5 L15 9.5 C15.6 9.5 16 9.9 16 10.5 L16 37.5 C16 38.1 15.6 38.5 15 38.5 L11.5 38.5 C10.9 38.5 10.5 38.1 10.5 37.5 L10.5 10.5 C10.5 9.9 10.9 9.5 11.5 9.5 Z"/>
    <path d="M16 10 L21 10 L37 11.5 C37.8 11.6 38.3 12.3 38 13 L37 17.2 C36.8 17.8 36.2 18.2 35.5 18.2 L23.3 23.5 Z"/>
    <path d="M16 25.5 L34.5 38.5 C35 38.9 35.7 38.9 36.3 38.5 C36.9 38.1 37.2 37.4 37 36.7 L38 32.2 C38.2 31.5 37.7 30.8 37 30.6 L22.5 22 Z"/>
  </g>
  <circle cx="9" cy="8" r="2" fill="#fff" opacity=".6"/>
</svg>
