<svg xmlns="http://www.w3.org/2000/svg" viewBox="0 0 1600 2400" width="1600" height="2400">
  <defs>
    <style>
      text { font-family: 'Inter', 'Segoe UI', system-ui, sans-serif; }
      .entity-name { font-size: 15px; font-weight: 800; fill: white; }
      .field-name { font-size: 11px; fill: #334155; font-weight: 500; }
      .field-type { font-size: 10px; fill: #94A3B8; }
      .field-pk { font-size: 10px; fill: #F59E0B; font-weight: 700; }
      .field-fk { font-size: 10px; fill: #8B5CF6; font-weight: 700; }
      .relation { font-size: 9px; fill: #64748B; font-weight: 600; }
    </style>
    <filter id="shadow">
      <feDropShadow dx="0" dy="2" stdDeviation="4" flood-color="#0001"/>
    </filter>
    <marker id="arrowhead" markerWidth="10" markerHeight="7" refX="10" refY="3.5" orient="auto">
      <polygon points="0 0, 10 3.5, 0 7" fill="#94A3B8"/>
    </marker>
  </defs>

  <rect width="1600" height="2400" fill="#F8FAFC"/>

  <!-- Title -->
  <rect width="1600" height="70" fill="#0F172A"/>
  <text x="800" y="30" text-anchor="middle" font-size="24" font-weight="800" fill="white">PLAYDEX — Diagrama ERD do Banco de Dados</text>
  <text x="800" y="52" text-anchor="middle" font-size="13" fill="#94A3B8">Prisma + PostgreSQL • 18 Tabelas • Relacionamentos Completos</text>

  <!-- ==================== USERS ==================== -->
  <g transform="translate(40, 90)">
    <rect width="260" height="280" rx="10" fill="white" stroke="#2563EB" stroke-width="2" filter="url(#shadow)"/>
    <rect width="260" height="32" rx="10" fill="#2563EB"/>
    <rect y="22" width="260" height="10" fill="#2563EB"/>
    <text x="130" y="22" text-anchor="middle" class="entity-name">👤 users</text>
    <g transform="translate(12, 44)">
      <text class="field-pk">PK</text><text x="24" class="field-name">id</text><text x="200" class="field-type">UUID</text>
      <text y="18" class="field-name">username</text><text x="200" y="18" class="field-type">String @unique</text>
      <text y="36" class="field-name">email</text><text x="200" y="36" class="field-type">String @unique</text>
      <text y="54" class="field-name">password_hash</text><text x="200" y="54" class="field-type">String</text>
      <text y="72" class="field-name">full_name</text><text x="200" y="72" class="field-type">String</text>
      <text y="90" class="field-name">cpf</text><text x="200" y="90" class="field-type">String?</text>
      <text y="108" class="field-name">phone</text><text x="200" y="108" class="field-type">String?</text>
      <text y="126" class="field-name">avatar_url</text><text x="200" y="126" class="field-type">String?</text>
      <text y="144" class="field-name">role</text><text x="200" y="144" class="field-type">Enum(USER,ADMIN)</text>
      <text y="162" class="field-name">verified</text><text x="200" y="162" class="field-type">Boolean</text>
      <text y="180" class="field-name">two_factor_enabled</text><text x="200" y="180" class="field-type">Boolean</text>
      <text y="198" class="field-name">two_factor_secret</text><text x="200" y="198" class="field-type">String?</text>
      <text y="216" class="field-name">balance</text><text x="200" y="216" class="field-type">Decimal @default(0)</text>
      <text y="234" class="field-name">pd_points</text><text x="200" y="234" class="field-type">Int @default(0)</text>
    </g>
  </g>

  <!-- ==================== ACCOUNTS (OAuth) ==================== -->
  <g transform="translate(340, 90)">
    <rect width="240" height="150" rx="10" fill="white" stroke="#7C3AED" stroke-width="2" filter="url(#shadow)"/>
    <rect width="240" height="32" rx="10" fill="#7C3AED"/>
    <rect y="22" width="240" height="10" fill="#7C3AED"/>
    <text x="120" y="22" text-anchor="middle" class="entity-name">🔗 accounts</text>
    <g transform="translate(12, 44)">
      <text class="field-pk">PK</text><text x="24" class="field-name">id</text><text x="180" class="field-type">UUID</text>
      <text y="18" class="field-fk">FK</text><text x="24" y="18" class="field-name">user_id</text><text x="180" y="18" class="field-type">UUID</text>
      <text y="36" class="field-name">provider</text><text x="180" y="36" class="field-type">String</text>
      <text y="54" class="field-name">provider_account_id</text><text x="180" y="54" class="field-type">String</text>
      <text y="72" class="field-name">access_token</text><text x="180" y="72" class="field-type">String?</text>
      <text y="90" class="field-name">refresh_token</text><text x="180" y="90" class="field-type">String?</text>
    </g>
  </g>

  <!-- ==================== PRODUCTS ==================== -->
  <g transform="translate(620, 90)">
    <rect width="280" height="300" rx="10" fill="white" stroke="#059669" stroke-width="2" filter="url(#shadow)"/>
    <rect width="280" height="32" rx="10" fill="#059669"/>
    <rect y="22" width="280" height="10" fill="#059669"/>
    <text x="140" y="22" text-anchor="middle" class="entity-name">🎮 products</text>
    <g transform="translate(12, 44)">
      <text class="field-pk">PK</text><text x="24" class="field-name">id</text><text x="220" class="field-type">UUID</text>
      <text y="18" class="field-fk">FK</text><text x="24" y="18" class="field-name">seller_id</text><text x="220" y="18" class="field-type">UUID</text>
      <text y="36" class="field-fk">FK</text><text x="24" y="36" class="field-name">category_id</text><text x="220" y="36" class="field-type">UUID</text>
      <text y="54" class="field-name">title</text><text x="220" y="54" class="field-type">String</text>
      <text y="72" class="field-name">slug</text><text x="220" y="72" class="field-type">String @unique</text>
      <text y="90" class="field-name">description</text><text x="220" y="90" class="field-type">Text</text>
      <text y="108" class="field-name">price</text><text x="220" y="108" class="field-type">Decimal</text>
      <text y="126" class="field-name">original_price</text><text x="220" y="126" class="field-type">Decimal?</text>
      <text y="144" class="field-name">type</text><text x="220" y="144" class="field-type">Enum(ACCOUNT,KEY...)</text>
      <text y="162" class="field-name">delivery_type</text><text x="220" y="162" class="field-type">Enum(AUTO,MANUAL)</text>
      <text y="180" class="field-name">plan</text><text x="220" y="180" class="field-type">Enum(SILVER,GOLD,DIAM)</text>
      <text y="198" class="field-name">status</text><text x="220" y="198" class="field-type">Enum(ACTIVE,PAUSED...)</text>
      <text y="216" class="field-name">auto_delivery_data</text><text x="220" y="216" class="field-type">Text?</text>
      <text y="234" class="field-name">sales_count</text><text x="220" y="234" class="field-type">Int @default(0)</text>
      <text y="252" class="field-name">avg_rating</text><text x="220" y="252" class="field-type">Decimal @default(0)</text>
    </g>
  </g>

  <!-- ==================== CATEGORIES ==================== -->
  <g transform="translate(940, 90)">
    <rect width="240" height="150" rx="10" fill="white" stroke="#D97706" stroke-width="2" filter="url(#shadow)"/>
    <rect width="240" height="32" rx="10" fill="#D97706"/>
    <rect y="22" width="240" height="10" fill="#D97706"/>
    <text x="120" y="22" text-anchor="middle" class="entity-name">📂 categories</text>
    <g transform="translate(12, 44)">
      <text class="field-pk">PK</text><text x="24" class="field-name">id</text><text x="180" class="field-type">UUID</text>
      <text y="18" class="field-fk">FK</text><text x="24" y="18" class="field-name">parent_id</text><text x="180" y="18" class="field-type">UUID?</text>
      <text y="36" class="field-name">name</text><text x="180" y="36" class="field-type">String</text>
      <text y="54" class="field-name">slug</text><text x="180" y="54" class="field-type">String @unique</text>
      <text y="72" class="field-name">image_url</text><text x="180" y="72" class="field-type">String?</text>
      <text y="90" class="field-name">product_count</text><text x="180" y="90" class="field-type">Int @default(0)</text>
    </g>
  </g>

  <!-- ==================== ORDERS ==================== -->
  <g transform="translate(40, 420)">
    <rect width="280" height="260" rx="10" fill="white" stroke="#EF4444" stroke-width="2" filter="url(#shadow)"/>
    <rect width="280" height="32" rx="10" fill="#EF4444"/>
    <rect y="22" width="280" height="10" fill="#EF4444"/>
    <text x="140" y="22" text-anchor="middle" class="entity-name">🛒 orders</text>
    <g transform="translate(12, 44)">
      <text class="field-pk">PK</text><text x="24" class="field-name">id</text><text x="220" class="field-type">UUID</text>
      <text y="18" class="field-fk">FK</text><text x="24" y="18" class="field-name">buyer_id</text><text x="220" y="18" class="field-type">UUID</text>
      <text y="36" class="field-fk">FK</text><text x="24" y="36" class="field-name">product_id</text><text x="220" y="36" class="field-type">UUID</text>
      <text y="54" class="field-name">amount</text><text x="220" y="54" class="field-type">Decimal</text>
      <text y="72" class="field-name">status</text><text x="220" y="72" class="field-type">Enum(PENDING,DELIV...)</text>
      <text y="90" class="field-name">payment_method</text><text x="220" y="90" class="field-type">Enum(PIX,CARD...)</text>
      <text y="108" class="field-name">payment_id</text><text x="220" y="108" class="field-type">String?</text>
      <text y="126" class="field-name">security_plan</text><text x="220" y="126" class="field-type">Enum(BASIC,PLUS,PREM)</text>
      <text y="144" class="field-name">release_date</text><text x="220" y="144" class="field-type">DateTime?</text>
      <text y="162" class="field-name">delivered_at</text><text x="220" y="162" class="field-type">DateTime?</text>
      <text y="180" class="field-name">coupon_code</text><text x="220" y="180" class="field-type">String?</text>
    </g>
  </g>

  <!-- ==================== TRANSACTIONS ==================== -->
  <g transform="translate(360, 420)">
    <rect width="260" height="180" rx="10" fill="white" stroke="#8B5CF6" stroke-width="2" filter="url(#shadow)"/>
    <rect width="260" height="32" rx="10" fill="#8B5CF6"/>
    <rect y="22" width="260" height="10" fill="#8B5CF6"/>
    <text x="130" y="22" text-anchor="middle" class="entity-name">💳 transactions</text>
    <g transform="translate(12, 44)">
      <text class="field-pk">PK</text><text x="24" class="field-name">id</text><text x="200" class="field-type">UUID</text>
      <text y="18" class="field-fk">FK</text><text x="24" y="18" class="field-name">order_id</text><text x="200" y="18" class="field-type">UUID</text>
      <text y="36" class="field-fk">FK</text><text x="24" y="36" class="field-name">seller_id</text><text x="200" y="36" class="field-type">UUID</text>
      <text y="54" class="field-name">type</text><text x="200" y="54" class="field-type">Enum(CREDIT,DEBIT)</text>
      <text y="72" class="field-name">amount</text><text x="200" y="72" class="field-type">Decimal</text>
      <text y="90" class="field-name">fee</text><text x="200" y="90" class="field-type">Decimal</text>
      <text y="108" class="field-name">net_amount</text><text x="200" y="108" class="field-type">Decimal</text>
      <text y="126" class="field-name">stripe_payment_id</text><text x="200" y="126" class="field-type">String?</text>
    </g>
  </g>

  <!-- ==================== WITHDRAWALS ==================== -->
  <g transform="translate(660, 420)">
    <rect width="250" height="160" rx="10" fill="white" stroke="#F59E0B" stroke-width="2" filter="url(#shadow)"/>
    <rect width="250" height="32" rx="10" fill="#F59E0B"/>
    <rect y="22" width="250" height="10" fill="#F59E0B"/>
    <text x="125" y="22" text-anchor="middle" class="entity-name">💰 withdrawals</text>
    <g transform="translate(12, 44)">
      <text class="field-pk">PK</text><text x="24" class="field-name">id</text><text x="190" class="field-type">UUID</text>
      <text y="18" class="field-fk">FK</text><text x="24" y="18" class="field-name">user_id</text><text x="190" y="18" class="field-type">UUID</text>
      <text y="36" class="field-name">amount</text><text x="190" y="36" class="field-type">Decimal</text>
      <text y="54" class="field-name">method</text><text x="190" y="54" class="field-type">Enum(PIX)</text>
      <text y="72" class="field-name">pix_key</text><text x="190" y="72" class="field-type">String</text>
      <text y="90" class="field-name">status</text><text x="190" y="90" class="field-type">Enum(PEND,COMP,FAIL)</text>
      <text y="108" class="field-name">is_turbo</text><text x="190" y="108" class="field-type">Boolean</text>
    </g>
  </g>

  <!-- ==================== REVIEWS ==================== -->
  <g transform="translate(950, 420)">
    <rect width="240" height="160" rx="10" fill="white" stroke="#10B981" stroke-width="2" filter="url(#shadow)"/>
    <rect width="240" height="32" rx="10" fill="#10B981"/>
    <rect y="22" width="240" height="10" fill="#10B981"/>
    <text x="120" y="22" text-anchor="middle" class="entity-name">⭐ reviews</text>
    <g transform="translate(12, 44)">
      <text class="field-pk">PK</text><text x="24" class="field-name">id</text><text x="180" class="field-type">UUID</text>
      <text y="18" class="field-fk">FK</text><text x="24" y="18" class="field-name">order_id</text><text x="180" y="18" class="field-type">UUID</text>
      <text y="36" class="field-fk">FK</text><text x="24" y="36" class="field-name">reviewer_id</text><text x="180" y="36" class="field-type">UUID</text>
      <text y="54" class="field-name">rating</text><text x="180" y="54" class="field-type">Int (1-5)</text>
      <text y="72" class="field-name">comment</text><text x="180" y="72" class="field-type">Text</text>
      <text y="90" class="field-name">seller_response</text><text x="180" y="90" class="field-type">Text?</text>
    </g>
  </g>

  <!-- ==================== MESSAGES ==================== -->
  <g transform="translate(40, 720)">
    <rect width="260" height="160" rx="10" fill="white" stroke="#06B6D4" stroke-width="2" filter="url(#shadow)"/>
    <rect width="260" height="32" rx="10" fill="#06B6D4"/>
    <rect y="22" width="260" height="10" fill="#06B6D4"/>
    <text x="130" y="22" text-anchor="middle" class="entity-name">💬 messages</text>
    <g transform="translate(12, 44)">
      <text class="field-pk">PK</text><text x="24" class="field-name">id</text><text x="200" class="field-type">UUID</text>
      <text y="18" class="field-fk">FK</text><text x="24" y="18" class="field-name">order_id</text><text x="200" y="18" class="field-type">UUID</text>
      <text y="36" class="field-fk">FK</text><text x="24" y="36" class="field-name">sender_id</text><text x="200" y="36" class="field-type">UUID</text>
      <text y="54" class="field-name">content</text><text x="200" y="54" class="field-type">Text</text>
      <text y="72" class="field-name">attachment_url</text><text x="200" y="72" class="field-type">String?</text>
      <text y="90" class="field-name">read</text><text x="200" y="90" class="field-type">Boolean @default(f)</text>
    </g>
  </g>

  <!-- ==================== NOTIFICATIONS ==================== -->
  <g transform="translate(340, 720)">
    <rect width="260" height="160" rx="10" fill="white" stroke="#F43F5E" stroke-width="2" filter="url(#shadow)"/>
    <rect width="260" height="32" rx="10" fill="#F43F5E"/>
    <rect y="22" width="260" height="10" fill="#F43F5E"/>
    <text x="130" y="22" text-anchor="middle" class="entity-name">🔔 notifications</text>
    <g transform="translate(12, 44)">
      <text class="field-pk">PK</text><text x="24" class="field-name">id</text><text x="200" class="field-type">UUID</text>
      <text y="18" class="field-fk">FK</text><text x="24" y="18" class="field-name">user_id</text><text x="200" y="18" class="field-type">UUID</text>
      <text y="36" class="field-name">type</text><text x="200" y="36" class="field-type">Enum(ORDER,SYSTEM...)</text>
      <text y="54" class="field-name">title</text><text x="200" y="54" class="field-type">String</text>
      <text y="72" class="field-name">body</text><text x="200" y="72" class="field-type">Text</text>
      <text y="90" class="field-name">read</text><text x="200" y="90" class="field-type">Boolean @default(f)</text>
    </g>
  </g>

  <!-- ==================== FAVORITES ==================== -->
  <g transform="translate(640, 720)">
    <rect width="220" height="120" rx="10" fill="white" stroke="#EC4899" stroke-width="2" filter="url(#shadow)"/>
    <rect width="220" height="32" rx="10" fill="#EC4899"/>
    <rect y="22" width="220" height="10" fill="#EC4899"/>
    <text x="110" y="22" text-anchor="middle" class="entity-name">♥ favorites</text>
    <g transform="translate(12, 44)">
      <text class="field-pk">PK</text><text x="24" class="field-name">id</text><text x="160" class="field-type">UUID</text>
      <text y="18" class="field-fk">FK</text><text x="24" y="18" class="field-name">user_id</text><text x="160" y="18" class="field-type">UUID</text>
      <text y="36" class="field-fk">FK</text><text x="24" y="36" class="field-name">product_id</text><text x="160" y="36" class="field-type">UUID</text>
      <text y="54" class="field-name">order</text><text x="160" y="54" class="field-type">Int @default(0)</text>
    </g>
  </g>

  <!-- ==================== COUPONS ==================== -->
  <g transform="translate(900, 720)">
    <rect width="260" height="160" rx="10" fill="white" stroke="#14B8A6" stroke-width="2" filter="url(#shadow)"/>
    <rect width="260" height="32" rx="10" fill="#14B8A6"/>
    <rect y="22" width="260" height="10" fill="#14B8A6"/>
    <text x="130" y="22" text-anchor="middle" class="entity-name">🏷️ coupons</text>
    <g transform="translate(12, 44)">
      <text class="field-pk">PK</text><text x="24" class="field-name">id</text><text x="200" class="field-type">UUID</text>
      <text y="18" class="field-name">code</text><text x="200" y="18" class="field-type">String @unique</text>
      <text y="36" class="field-name">discount_percent</text><text x="200" y="36" class="field-type">Decimal</text>
      <text y="54" class="field-name">max_uses</text><text x="200" y="54" class="field-type">Int</text>
      <text y="72" class="field-name">used_count</text><text x="200" y="72" class="field-type">Int @default(0)</text>
      <text y="90" class="field-name">expires_at</text><text x="200" y="90" class="field-type">DateTime</text>
    </g>
  </g>

  <!-- ==================== BLOG_POSTS ==================== -->
  <g transform="translate(40, 920)">
    <rect width="280" height="200" rx="10" fill="white" stroke="#6366F1" stroke-width="2" filter="url(#shadow)"/>
    <rect width="280" height="32" rx="10" fill="#6366F1"/>
    <rect y="22" width="280" height="10" fill="#6366F1"/>
    <text x="140" y="22" text-anchor="middle" class="entity-name">📝 blog_posts</text>
    <g transform="translate(12, 44)">
      <text class="field-pk">PK</text><text x="24" class="field-name">id</text><text x="220" class="field-type">UUID</text>
      <text y="18" class="field-fk">FK</text><text x="24" y="18" class="field-name">author_id</text><text x="220" y="18" class="field-type">UUID</text>
      <text y="36" class="field-name">title</text><text x="220" y="36" class="field-type">String</text>
      <text y="54" class="field-name">slug</text><text x="220" y="54" class="field-type">String @unique</text>
      <text y="72" class="field-name">excerpt</text><text x="220" y="72" class="field-type">Text</text>
      <text y="90" class="field-name">content</text><text x="220" y="90" class="field-type">Text (Rich)</text>
      <text y="108" class="field-name">cover_image_url</text><text x="220" y="108" class="field-type">String?</text>
      <text y="126" class="field-name">category</text><text x="220" y="126" class="field-type">String</text>
      <text y="144" class="field-name">published</text><text x="220" y="144" class="field-type">Boolean</text>
    </g>
  </g>

  <!-- ==================== PRODUCT_IMAGES ==================== -->
  <g transform="translate(360, 920)">
    <rect width="240" height="140" rx="10" fill="white" stroke="#A855F7" stroke-width="2" filter="url(#shadow)"/>
    <rect width="240" height="32" rx="10" fill="#A855F7"/>
    <rect y="22" width="240" height="10" fill="#A855F7"/>
    <text x="120" y="22" text-anchor="middle" class="entity-name">🖼️ product_images</text>
    <g transform="translate(12, 44)">
      <text class="field-pk">PK</text><text x="24" class="field-name">id</text><text x="180" class="field-type">UUID</text>
      <text y="18" class="field-fk">FK</text><text x="24" y="18" class="field-name">product_id</text><text x="180" y="18" class="field-type">UUID</text>
      <text y="36" class="field-name">url</text><text x="180" y="36" class="field-type">String</text>
      <text y="54" class="field-name">order</text><text x="180" y="54" class="field-type">Int</text>
      <text y="72" class="field-name">is_primary</text><text x="180" y="72" class="field-type">Boolean</text>
    </g>
  </g>

  <!-- ==================== SUBSCRIPTIONS ==================== -->
  <g transform="translate(640, 920)">
    <rect width="260" height="160" rx="10" fill="white" stroke="#0EA5E9" stroke-width="2" filter="url(#shadow)"/>
    <rect width="260" height="32" rx="10" fill="#0EA5E9"/>
    <rect y="22" width="260" height="10" fill="#0EA5E9"/>
    <text x="130" y="22" text-anchor="middle" class="entity-name">🔄 subscriptions</text>
    <g transform="translate(12, 44)">
      <text class="field-pk">PK</text><text x="24" class="field-name">id</text><text x="200" class="field-type">UUID</text>
      <text y="18" class="field-fk">FK</text><text x="24" y="18" class="field-name">user_id</text><text x="200" y="18" class="field-type">UUID</text>
      <text y="36" class="field-name">plan</text><text x="200" y="36" class="field-type">Enum(SILVER,GOLD,DIAM)</text>
      <text y="54" class="field-name">stripe_sub_id</text><text x="200" y="54" class="field-type">String?</text>
      <text y="72" class="field-name">status</text><text x="200" y="72" class="field-type">Enum(ACTIVE,CANCEL...)</text>
      <text y="90" class="field-name">current_period_end</text><text x="200" y="90" class="field-type">DateTime</text>
    </g>
  </g>

  <!-- ==================== AFFILIATES ==================== -->
  <g transform="translate(940, 920)">
    <rect width="260" height="160" rx="10" fill="white" stroke="#F97316" stroke-width="2" filter="url(#shadow)"/>
    <rect width="260" height="32" rx="10" fill="#F97316"/>
    <rect y="22" width="260" height="10" fill="#F97316"/>
    <text x="130" y="22" text-anchor="middle" class="entity-name">🤝 affiliates</text>
    <g transform="translate(12, 44)">
      <text class="field-pk">PK</text><text x="24" class="field-name">id</text><text x="200" class="field-type">UUID</text>
      <text y="18" class="field-fk">FK</text><text x="24" y="18" class="field-name">user_id</text><text x="200" y="18" class="field-type">UUID</text>
      <text y="36" class="field-name">referral_code</text><text x="200" y="36" class="field-type">String @unique</text>
      <text y="54" class="field-name">commission_rate</text><text x="200" y="54" class="field-type">Decimal</text>
      <text y="72" class="field-name">total_earned</text><text x="200" y="72" class="field-type">Decimal @default(0)</text>
      <text y="90" class="field-name">total_referrals</text><text x="200" y="90" class="field-type">Int @default(0)</text>
    </g>
  </g>

  <!-- ==================== AFFILIATE_REFERRALS ==================== -->
  <g transform="translate(1240, 920)">
    <rect width="280" height="140" rx="10" fill="white" stroke="#FB923C" stroke-width="2" filter="url(#shadow)"/>
    <rect width="280" height="32" rx="10" fill="#FB923C"/>
    <rect y="22" width="280" height="10" fill="#FB923C"/>
    <text x="140" y="22" text-anchor="middle" class="entity-name">👥 affiliate_referrals</text>
    <g transform="translate(12, 44)">
      <text class="field-pk">PK</text><text x="24" class="field-name">id</text><text x="220" class="field-type">UUID</text>
      <text y="18" class="field-fk">FK</text><text x="24" y="18" class="field-name">affiliate_id</text><text x="220" y="18" class="field-type">UUID</text>
      <text y="36" class="field-fk">FK</text><text x="24" y="36" class="field-name">referred_id</text><text x="220" y="36" class="field-type">UUID</text>
      <text y="54" class="field-name">status</text><text x="220" y="54" class="field-type">Enum(PEND,ACTIVE...)</text>
      <text y="72" class="field-name">earned</text><text x="220" y="72" class="field-type">Decimal @default(0)</text>
    </g>
  </g>

  <!-- ==================== COMMUNITY_POSTS ==================== -->
  <g transform="translate(40, 1160)">
    <rect width="280" height="180" rx="10" fill="white" stroke="#22C55E" stroke-width="2" filter="url(#shadow)"/>
    <rect width="280" height="32" rx="10" fill="#22C55E"/>
    <rect y="22" width="280" height="10" fill="#22C55E"/>
    <text x="140" y="22" text-anchor="middle" class="entity-name">🌐 community_posts</text>
    <g transform="translate(12, 44)">
      <text class="field-pk">PK</text><text x="24" class="field-name">id</text><text x="220" class="field-type">UUID</text>
      <text y="18" class="field-fk">FK</text><text x="24" y="18" class="field-name">author_id</text><text x="220" y="18" class="field-type">UUID</text>
      <text y="36" class="field-name">content</text><text x="220" y="36" class="field-type">Text</text>
      <text y="54" class="field-name">category</text><text x="220" y="54" class="field-type">Enum(TIP,REVIEW...)</text>
      <text y="72" class="field-name">image_url</text><text x="220" y="72" class="field-type">String?</text>
      <text y="90" class="field-name">likes_count</text><text x="220" y="90" class="field-type">Int @default(0)</text>
      <text y="108" class="field-name">comments_count</text><text x="220" y="108" class="field-type">Int @default(0)</text>
    </g>
  </g>

  <!-- ==================== VERIFICATIONS ==================== -->
  <g transform="translate(360, 1160)">
    <rect width="260" height="140" rx="10" fill="white" stroke="#0D9488" stroke-width="2" filter="url(#shadow)"/>
    <rect width="260" height="32" rx="10" fill="#0D9488"/>
    <rect y="22" width="260" height="10" fill="#0D9488"/>
    <text x="130" y="22" text-anchor="middle" class="entity-name">✅ verifications</text>
    <g transform="translate(12, 44)">
      <text class="field-pk">PK</text><text x="24" class="field-name">id</text><text x="200" class="field-type">UUID</text>
      <text y="18" class="field-fk">FK</text><text x="24" y="18" class="field-name">user_id</text><text x="200" y="18" class="field-type">UUID</text>
      <text y="36" class="field-name">document_type</text><text x="200" y="36" class="field-type">Enum(RG,CNH)</text>
      <text y="54" class="field-name">document_url</text><text x="200" y="54" class="field-type">String</text>
      <text y="72" class="field-name">selfie_url</text><text x="200" y="72" class="field-type">String</text>
      <text y="90" class="field-name">status</text><text x="200" y="90" class="field-type">Enum(PEND,APPROVED...)</text>
    </g>
  </g>

  <!-- ==================== PD_POINTS_TRANSACTIONS ==================== -->
  <g transform="translate(660, 1160)">
    <rect width="300" height="140" rx="10" fill="white" stroke="#FBBF24" stroke-width="2" filter="url(#shadow)"/>
    <rect width="300" height="32" rx="10" fill="#FBBF24"/>
    <rect y="22" width="300" height="10" fill="#FBBF24"/>
    <text x="150" y="22" text-anchor="middle" class="entity-name">⭐ pd_points_transactions</text>
    <g transform="translate(12, 44)">
      <text class="field-pk">PK</text><text x="24" class="field-name">id</text><text x="240" class="field-type">UUID</text>
      <text y="18" class="field-fk">FK</text><text x="24" y="18" class="field-name">user_id</text><text x="240" y="18" class="field-type">UUID</text>
      <text y="36" class="field-name">type</text><text x="240" y="36" class="field-type">Enum(EARN,REDEEM,EXPIRE)</text>
      <text y="54" class="field-name">amount</text><text x="240" y="54" class="field-type">Int</text>
      <text y="72" class="field-name">description</text><text x="240" y="72" class="field-type">String</text>
      <text y="90" class="field-name">expires_at</text><text x="240" y="90" class="field-type">DateTime?</text>
    </g>
  </g>

  <!-- ==================== INTERVENTIONS ==================== -->
  <g transform="translate(1000, 1160)">
    <rect width="260" height="140" rx="10" fill="white" stroke="#EF4444" stroke-width="2" filter="url(#shadow)"/>
    <rect width="260" height="32" rx="10" fill="#EF4444"/>
    <rect y="22" width="260" height="10" fill="#EF4444"/>
    <text x="130" y="22" text-anchor="middle" class="entity-name">⚖️ interventions</text>
    <g transform="translate(12, 44)">
      <text class="field-pk">PK</text><text x="24" class="field-name">id</text><text x="200" class="field-type">UUID</text>
      <text y="18" class="field-fk">FK</text><text x="24" y="18" class="field-name">order_id</text><text x="200" y="18" class="field-type">UUID</text>
      <text y="36" class="field-fk">FK</text><text x="24" y="36" class="field-name">reporter_id</text><text x="200" y="36" class="field-type">UUID</text>
      <text y="54" class="field-name">reason</text><text x="200" y="54" class="field-type">Text</text>
      <text y="72" class="field-name">status</text><text x="200" y="72" class="field-type">Enum(OPEN,RESOLVED...)</text>
      <text y="90" class="field-name">resolution</text><text x="200" y="90" class="field-type">Text?</text>
    </g>
  </g>

  <!-- ==================== RELATIONSHIP LINES ==================== -->
  <!-- Users → Products (1:N) -->
  <line x1="170" y1="370" x2="620" y2="100" stroke="#94A3B8" stroke-width="1.5" stroke-dasharray="4,4" marker-end="url(#arrowhead)"/>
  <text x="380" y="260" class="relation">1:N</text>

  <!-- Users → Orders (1:N) -->
  <line x1="170" y1="370" x2="180" y2="420" stroke="#94A3B8" stroke-width="1.5" stroke-dasharray="4,4" marker-end="url(#arrowhead)"/>
  <text x="160" y="395" class="relation">1:N</text>

  <!-- Categories → Products (1:N) -->
  <line x1="940" y1="240" x2="900" y2="180" stroke="#94A3B8" stroke-width="1.5" stroke-dasharray="4,4" marker-end="url(#arrowhead)"/>
  <text x="940" y="200" class="relation">1:N</text>

  <!-- Products → Orders (1:N) -->
  <line x1="760" y1="390" x2="320" y2="480" stroke="#94A3B8" stroke-width="1.5" stroke-dasharray="4,4" marker-end="url(#arrowhead)"/>

  <!-- Orders → Transactions (1:N) -->
  <line x1="320" y1="520" x2="360" y2="500" stroke="#94A3B8" stroke-width="1.5" stroke-dasharray="4,4" marker-end="url(#arrowhead)"/>

  <!-- Orders → Reviews (1:N) -->
  <line x1="320" y1="560" x2="950" y2="500" stroke="#94A3B8" stroke-width="1.5" stroke-dasharray="4,4" marker-end="url(#arrowhead)"/>

  <!-- Orders → Messages (1:N) -->
  <line x1="180" y1="680" x2="170" y2="720" stroke="#94A3B8" stroke-width="1.5" stroke-dasharray="4,4" marker-end="url(#arrowhead)"/>

  <!-- Users → Notifications (1:N) -->
  <line x1="300" y1="300" x2="470" y2="720" stroke="#94A3B8" stroke-width="1.5" stroke-dasharray="4,4" marker-end="url(#arrowhead)"/>

  <!-- Users → Favorites (1:N) -->
  <line x1="260" y1="300" x2="750" y2="720" stroke="#94A3B8" stroke-width="1.5" stroke-dasharray="4,4" marker-end="url(#arrowhead)"/>

  <!-- Users → Affiliates (1:1) -->
  <line x1="260" y1="200" x2="940" y2="960" stroke="#94A3B8" stroke-width="1" stroke-dasharray="2,6" marker-end="url(#arrowhead)"/>
  <text x="600" y="580" class="relation">1:1</text>

  <!-- Affiliates → Referrals (1:N) -->
  <line x1="1200" y1="1000" x2="1240" y2="970" stroke="#94A3B8" stroke-width="1.5" stroke-dasharray="4,4" marker-end="url(#arrowhead)"/>

  <!-- Legend -->
  <g transform="translate(40, 1380)">
    <rect width="500" height="220" rx="12" fill="white" stroke="#E2E8F0" filter="url(#shadow)"/>
    <text x="250" y="28" text-anchor="middle" font-size="14" font-weight="800" fill="#0F172A">LEGENDA</text>

    <text x="20" y="56" class="field-pk">PK</text><text x="44" y="56" class="field-name">= Primary Key (UUID)</text>
    <text x="20" y="76" class="field-fk">FK</text><text x="44" y="76" class="field-name">= Foreign Key</text>
    <text x="20" y="96" class="field-type">String?</text><text x="70" y="96" class="field-name">= Nullable</text>
    <line x1="20" y1="116" x2="80" y2="116" stroke="#94A3B8" stroke-width="1.5" stroke-dasharray="4,4"/>
    <text x="90" y="120" class="field-name">= Relacionamento</text>

    <text x="20" y="148" font-size="11" font-weight="700" fill="#0F172A">18 Tabelas no total</text>
    <text x="20" y="168" font-size="10" fill="#64748B">• 6 tabelas de transações (orders, transactions, withdrawals, coupons, pd_points_transactions, subscriptions)</text>
    <text x="20" y="184" font-size="10" fill="#64748B">• 4 tabelas de conteúdo (products, categories, blog_posts, community_posts)</text>
    <text x="20" y="200" font-size="10" fill="#64748B">• 4 tabelas de usuários (users, accounts, affiliates, affiliate_referrals)</text>
    <text x="20" y="216" font-size="10" fill="#64748B">• 4 tabelas auxiliares (reviews, messages, notifications, verifications, favorites, interventions, product_images)</text>
  </g>

  <!-- Tech stack note -->
  <g transform="translate(600, 1380)">
    <rect width="440" height="220" rx="12" fill="white" stroke="#E2E8F0" filter="url(#shadow)"/>
    <text x="220" y="28" text-anchor="middle" font-size="14" font-weight="800" fill="#0F172A">STACK DO BANCO DE DADOS</text>
    <text x="20" y="56" font-size="11" fill="#334155">ORM: <tspan font-weight="700" fill="#0F172A">Prisma 5.x</tspan></text>
    <text x="20" y="76" font-size="11" fill="#334155">Database: <tspan font-weight="700" fill="#0F172A">PostgreSQL 16</tspan></text>
    <text x="20" y="96" font-size="11" fill="#334155">Cache: <tspan font-weight="700" fill="#0F172A">Redis (sessões + rate limit)</tspan></text>
    <text x="20" y="116" font-size="11" fill="#334155">Auth: <tspan font-weight="700" fill="#0F172A">NextAuth.js v5 + 2FA TOTP</tspan></text>
    <text x="20" y="136" font-size="11" fill="#334155">Pagamentos: <tspan font-weight="700" fill="#0F172A">Stripe + PIX (Asaas/MercadoPago)</tspan></text>
    <text x="20" y="156" font-size="11" fill="#334155">Upload: <tspan font-weight="700" fill="#0F172A">Cloudflare R2 / S3</tspan></text>
    <text x="20" y="176" font-size="11" fill="#334155">Busca: <tspan font-weight="700" fill="#0F172A">PostgreSQL Full Text + pg_trgm</tspan></text>
    <text x="20" y="196" font-size="11" fill="#334155">Email: <tspan font-weight="700" fill="#0F172A">Resend / SendGrid</tspan></text>
    <text x="20" y="216" font-size="11" fill="#334155">API Docs: <tspan font-weight="700" fill="#0F172A">Swagger / OpenAPI 3.1</tspan></text>
  </g>
</svg>
