<svg xmlns="http://www.w3.org/2000/svg" viewBox="0 0 1800 3200" width="1800" height="3200">
  <defs>
    <linearGradient id="gBrand" x1="0%" y1="0%" x2="100%" y2="100%">
      <stop offset="0%" style="stop-color:#2563EB"/>
      <stop offset="100%" style="stop-color:#7C3AED"/>
    </linearGradient>
    <linearGradient id="gSales" x1="0%" y1="0%" x2="100%" y2="100%">
      <stop offset="0%" style="stop-color:#F59E0B"/>
      <stop offset="100%" style="stop-color:#EF4444"/>
    </linearGradient>
    <linearGradient id="gUser" x1="0%" y1="0%" x2="100%" y2="100%">
      <stop offset="0%" style="stop-color:#10B981"/>
      <stop offset="100%" style="stop-color:#06B6D4"/>
    </linearGradient>
    <linearGradient id="gContent" x1="0%" y1="0%" x2="100%" y2="100%">
      <stop offset="0%" style="stop-color:#8B5CF6"/>
      <stop offset="100%" style="stop-color:#EC4899"/>
    </linearGradient>
    <linearGradient id="gAdmin" x1="0%" y1="0%" x2="100%" y2="100%">
      <stop offset="0%" style="stop-color:#0F172A"/>
      <stop offset="100%" style="stop-color:#334155"/>
    </linearGradient>
    <filter id="shadow">
      <feDropShadow dx="0" dy="2" stdDeviation="4" flood-color="#0001"/>
    </filter>
    <style>
      text { font-family: 'Inter','Segoe UI',system-ui,sans-serif; }
      .hero-title { font-size: 32px; font-weight: 900; fill: white; }
      .hero-sub { font-size: 14px; fill: rgba(255,255,255,0.8); }
      .cat-title { font-size: 16px; font-weight: 800; fill: white; }
      .page-num { font-size: 9px; font-weight: 700; fill: white; }
      .page-name { font-size: 11px; font-weight: 700; fill: #0F172A; }
      .page-desc { font-size: 9px; fill: #64748B; }
      .page-features { font-size: 8px; fill: #94A3B8; }
      .existing { font-size: 8px; fill: #2563EB; font-weight: 600; }
    </style>
  </defs>

  <!-- Background -->
  <rect width="1800" height="3200" fill="#F8FAFC"/>

  <!-- ==================== HEADER ==================== -->
  <rect width="1800" height="100" fill="url(#gBrand)"/>
  <text x="900" y="38" text-anchor="middle" font-size="30" font-weight="900" fill="white">PLAYDEX v2.0 — MAPA COMPLETO DO SITE</text>
  <text x="900" y="62" text-anchor="middle" font-size="14" fill="rgba(255,255,255,0.8)">25+ Páginas Novas + 13 Existentes = 38 Páginas Totais</text>
  <text x="900" y="84" text-anchor="middle" font-size="12" fill="rgba(255,255,255,0.6)">Dark/Light Mode • Framer Motion • React Three Fiber • Prisma + PostgreSQL • Stripe</text>

  <!-- Legend -->
  <g transform="translate(60, 115)">
    <rect width="12" height="12" rx="3" fill="#2563EB"/><text x="18" y="10" font-size="10" fill="#334155">Já existe (13 páginas)</text>
    <rect x="160" width="12" height="12" rx="3" fill="#F59E0B"/><text x="178" y="10" font-size="10" fill="#334155">Novas — Vendas (7)</text>
    <rect x="320" width="12" height="12" rx="3" fill="#10B981"/><text x="338" y="10" font-size="10" fill="#334155">Novas — Usuário (6)</text>
    <rect x="490" width="12" height="12" rx="3" fill="#8B5CF6"/><text x="508" y="10" font-size="10" fill="#334155">Novas — Conteúdo (5)</text>
    <rect x="670" width="12" height="12" rx="3" fill="#334155"/><text x="688" y="10" font-size="10" fill="#334155">Novas — Admin (7)</text>
  </g>

  <!-- ==================== HOME — CENTER HUB ==================== -->
  <g transform="translate(600, 155)">
    <rect width="600" height="160" rx="20" fill="url(#gBrand)" filter="url(#shadow)"/>
    <text x="300" y="40" text-anchor="middle" class="hero-title">🏠 / — Home V2</text>
    <text x="300" y="62" text-anchor="middle" class="hero-sub">Hero 3D + Categorias + Produtos + Reviews + Blog + Stats</text>
    <g transform="translate(30, 78)">
      <rect width="100" height="28" rx="14" fill="rgba(255,255,255,0.2)"/>
      <text x="50" y="18" text-anchor="middle" font-size="9" font-weight="600" fill="white">💎 Hero 3D</text>
      <rect x="110" width="100" height="28" rx="14" fill="rgba(255,255,255,0.2)"/>
      <text x="160" y="18" text-anchor="middle" font-size="9" font-weight="600" fill="white">🎮 Categorias</text>
      <rect x="220" width="100" height="28" rx="14" fill="rgba(255,255,255,0.2)"/>
      <text x="270" y="18" text-anchor="middle" font-size="9" font-weight="600" fill="white">⭐ Destaques</text>
      <rect x="330" width="100" height="28" rx="14" fill="rgba(255,255,255,0.2)"/>
      <text x="380" y="18" text-anchor="middle" font-size="9" font-weight="600" fill="white">💬 Reviews</text>
      <rect x="440" width="100" height="28" rx="14" fill="rgba(255,255,255,0.2)"/>
      <text x="490" y="18" text-anchor="middle" font-size="9" font-weight="600" fill="white">📊 Stats</text>
    </g>
    <text x="300" y="142" text-anchor="middle" font-size="10" fill="rgba(255,255,255,0.5)">Hub central • Conecta todas as seções • Primeira impressão</text>
  </g>

  <!-- ==================== VENDAS E CONVERSÃO [7] ==================== -->
  <g transform="translate(40, 350)">
    <rect width="860" height="460" rx="16" fill="white" stroke="#FDE68A" stroke-width="2" filter="url(#shadow)"/>
    <rect width="860" height="44" rx="16" fill="url(#gSales)"/>
    <rect y="30" width="860" height="14" fill="url(#gSales)"/>
    <text x="430" y="28" text-anchor="middle" class="cat-title">💰 VENDAS E CONVERSÃO — 7 Páginas</text>

    <!-- Row 1 -->
    <!-- P01: Home V2 -->
    <g transform="translate(20, 60)">
      <rect width="190" height="170" rx="12" fill="#FFFBEB" stroke="#FDE68A"/>
      <circle cx="16" cy="16" r="12" fill="#F59E0B"/><text x="16" y="20" text-anchor="middle" class="page-num">01</text>
      <text x="36" y="18" class="page-name">/ Home V2</text>
      <text x="10" y="38" class="page-desc">Página principal redesenhada</text>
      <text x="10" y="54" class="page-features">• Hero 3D interativo (R3F)</text>
      <text x="10" y="68" class="page-features">• Categorias com hover 3D</text>
      <text x="10" y="82" class="page-features">• Produtos em destaque</text>
      <text x="10" y="96" class="page-features">• Avaliações carrossel</text>
      <text x="10" y="110" class="page-features">• Stats animados (1M+, 500K+)</text>
      <text x="10" y="124" class="page-features">• Blog section</text>
      <text x="10" y="138" class="page-features">• CTA flutuante mobile</text>
      <rect x="10" y="148" width="44" height="14" rx="3" fill="#F59E0B"/><text x="32" y="158" text-anchor="middle" font-size="7" font-weight="700" fill="white">NOVA</text>
    </g>

    <!-- P02: Planos -->
    <g transform="translate(225, 60)">
      <rect width="190" height="170" rx="12" fill="#FFFBEB" stroke="#FDE68A"/>
      <circle cx="16" cy="16" r="12" fill="#F59E0B"/><text x="16" y="20" text-anchor="middle" class="page-num">02</text>
      <text x="36" y="18" class="page-name">/planos</text>
      <text x="10" y="38" class="page-desc">Página de preços animada</text>
      <text x="10" y="54" class="page-features">• Toggle mensal/anual</text>
      <text x="10" y="68" class="page-features">• 3 planos com hover expand</text>
      <text x="10" y="82" class="page-features">• Badge "Popular" animado</text>
      <text x="10" y="96" class="page-features">• Feature checklist animado</text>
      <text x="10" y="110" class="page-features">• CTA com efeito pulse</text>
      <text x="10" y="124" class="page-features">• FAQ integrado</text>
      <rect x="10" y="148" width="44" height="14" rx="3" fill="#F59E0B"/><text x="32" y="158" text-anchor="middle" font-size="7" font-weight="700" fill="white">NOVA</text>
    </g>

    <!-- P03: Comparativo -->
    <g transform="translate(430, 60)">
      <rect width="190" height="170" rx="12" fill="#FFFBEB" stroke="#FDE68A"/>
      <circle cx="16" cy="16" r="12" fill="#F59E0B"/><text x="16" y="20" text-anchor="middle" class="page-num">03</text>
      <text x="36" y="18" class="page-name">/comparativo</text>
      <text x="10" y="38" class="page-desc">Comparar planos lado a lado</text>
      <text x="10" y="54" class="page-features">• Tabela com highlight</text>
      <text x="10" y="68" class="page-features">• Sticky header ao scroll</text>
      <text x="10" y="82" class="page-features">• Check/Uncheck animados</text>
      <text x="10" y="96" class="page-features">• Tooltips nas features</text>
      <text x="10" y="110" class="page-features">• "Mais indicado pra você"</text>
      <rect x="10" y="148" width="44" height="14" rx="3" fill="#F59E0B"/><text x="32" y="158" text-anchor="middle" font-size="7" font-weight="700" fill="white">NOVA</text>
    </g>

    <!-- P04: Ofertas -->
    <g transform="translate(635, 60)">
      <rect width="190" height="170" rx="12" fill="#FFFBEB" stroke="#FDE68A"/>
      <circle cx="16" cy="16" r="12" fill="#F59E0B"/><text x="16" y="20" text-anchor="middle" class="page-num">04</text>
      <text x="36" y="18" class="page-name">/ofertas</text>
      <text x="10" y="38" class="page-desc">Página de ofertas com timer</text>
      <text x="10" y="54" class="page-features">• Cronômetro regressivo</text>
      <text x="10" y="68" class="page-features">• Banner hero animado</text>
      <text x="10" y="82" class="page-features">• Tabs por categoria</text>
      <text x="10" y="96" class="page-features">• Badge % desconto</text>
      <text x="10" y="110" class="page-features">• Filtro de preço</text>
      <text x="10" y="124" class="page-features">• "Acaba em X horas"</text>
      <rect x="10" y="148" width="44" height="14" rx="3" fill="#F59E0B"/><text x="32" y="158" text-anchor="middle" font-size="7" font-weight="700" fill="white">NOVA</text>
    </g>

    <!-- Row 2 -->
    <!-- P05: Cupons -->
    <g transform="translate(20, 245)">
      <rect width="190" height="170" rx="12" fill="#FFFBEB" stroke="#FDE68A"/>
      <circle cx="16" cy="16" r="12" fill="#F59E0B"/><text x="16" y="20" text-anchor="middle" class="page-num">05</text>
      <text x="36" y="18" class="page-name">/cupons</text>
      <text x="10" y="38" class="page-desc">Gerador e validador</text>
      <text x="10" y="54" class="page-features">• Input com validação live</text>
      <text x="10" y="68" class="page-features">• Animação de sucesso/erro</text>
      <text x="10" y="82" class="page-features">• Cupons disponíveis</text>
      <text x="10" y="96" class="page-features">• Copy-to-clipboard</text>
      <text x="10" y="110" class="page-features">• Histórico de cupons usados</text>
      <rect x="10" y="148" width="44" height="14" rx="3" fill="#F59E0B"/><text x="32" y="158" text-anchor="middle" font-size="7" font-weight="700" fill="white">NOVA</text>
    </g>

    <!-- P06: Garantia -->
    <g transform="translate(225, 245)">
      <rect width="190" height="170" rx="12" fill="#FFFBEB" stroke="#FDE68A"/>
      <circle cx="16" cy="16" r="12" fill="#F59E0B"/><text x="16" y="20" text-anchor="middle" class="page-num">06</text>
      <text x="36" y="18" class="page-name">/garantia</text>
      <text x="10" y="38" class="page-desc">Garantia e segurança</text>
      <text x="10" y="54" class="page-features">• Shield 3D animado</text>
      <text x="10" y="68" class="page-features">• Steps de proteção</text>
      <text x="10" y="82" class="page-features">• Selo de confiança</text>
      <text x="10" y="96" class="page-features">• Stats de segurança</text>
      <text x="10" y="110" class="page-features">• Depoimentos de segurança</text>
      <rect x="10" y="148" width="44" height="14" rx="3" fill="#F59E0B"/><text x="32" y="158" text-anchor="middle" font-size="7" font-weight="700" fill="white">NOVA</text>
    </g>

    <!-- P07: Checkout V2 -->
    <g transform="translate(430, 245)">
      <rect width="190" height="170" rx="12" fill="#FFFBEB" stroke="#FDE68A"/>
      <circle cx="16" cy="16" r="12" fill="#F59E0B"/><text x="16" y="20" text-anchor="middle" class="page-num">07</text>
      <text x="36" y="18" class="page-name">/checkout V2</text>
      <text x="10" y="38" class="page-desc">Checkout em 1 passo</text>
      <text x="10" y="54" class="page-features">• Stepper animado</text>
      <text x="10" y="68" class="page-features">• PIX QR code dinâmico</text>
      <text x="10" y="82" class="page-features">• Stripe Elements integrado</text>
      <text x="10" y="96" class="page-features">• Cupom inline</text>
      <text x="10" y="110" class="page-features">• Upsell de seguro</text>
      <text x="10" y="124" class="page-features">• Confetti na confirmação</text>
      <rect x="10" y="148" width="44" height="14" rx="3" fill="#F59E0B"/><text x="32" y="158" text-anchor="middle" font-size="7" font-weight="700" fill="white">NOVA</text>
    </g>
  </g>

  <!-- ==================== USUÁRIO E CONTA [6] ==================== -->
  <g transform="translate(920, 350)">
    <rect width="840" height="460" rx="16" fill="white" stroke="#A7F3D0" stroke-width="2" filter="url(#shadow)"/>
    <rect width="840" height="44" rx="16" fill="url(#gUser)"/>
    <rect y="30" width="840" height="14" fill="url(#gUser)"/>
    <text x="420" y="28" text-anchor="middle" class="cat-title">👤 USUÁRIO E CONTA — 6 Páginas Novas</text>

    <!-- P08: Dashboard -->
    <g transform="translate(20, 60)">
      <rect width="190" height="170" rx="12" fill="#ECFDF5" stroke="#A7F3D0"/>
      <circle cx="16" cy="16" r="12" fill="#10B981"/><text x="16" y="20" text-anchor="middle" class="page-num">08</text>
      <text x="36" y="18" class="page-name">/dashboard</text>
      <text x="10" y="38" class="page-desc">Painel com gamificação</text>
      <text x="10" y="54" class="page-features">• XP bar + nível</text>
      <text x="10" y="68" class="page-features">• Stats animados (4 cards)</text>
      <text x="10" y="82" class="page-features">• Pedidos recentes</text>
      <text x="10" y="96" class="page-features">• Missões diárias</text>
      <text x="10" y="110" class="page-features">• Badge conquistas</text>
      <text x="10" y="124" class="page-features">• Quick actions</text>
      <rect x="10" y="148" width="44" height="14" rx="3" fill="#10B981"/><text x="32" y="158" text-anchor="middle" font-size="7" font-weight="700" fill="white">NOVA</text>
    </g>

    <!-- P09: Perfil -->
    <g transform="translate(225, 60)">
      <rect width="190" height="170" rx="12" fill="#ECFDF5" stroke="#A7F3D0"/>
      <circle cx="16" cy="16" r="12" fill="#10B981"/><text x="16" y="20" text-anchor="middle" class="page-num">09</text>
      <text x="36" y="18" class="page-name">/perfil</text>
      <text x="10" y="38" class="page-desc">Perfil com avatar 3D</text>
      <text x="10" y="54" class="page-features">• Avatar 3D interativo</text>
      <text x="10" y="68" class="page-features">• Edit inline</text>
      <text x="10" y="82" class="page-features">• Badge verified</text>
      <text x="10" y="96" class="page-features">• Reviews recebidas</text>
      <text x="10" y="110" class="page-features">• Estatísticas públicas</text>
      <rect x="10" y="148" width="44" height="14" rx="3" fill="#10B981"/><text x="32" y="158" text-anchor="middle" font-size="7" font-weight="700" fill="white">NOVA</text>
    </g>

    <!-- P10: Assinatura -->
    <g transform="translate(430, 60)">
      <rect width="190" height="170" rx="12" fill="#ECFDF5" stroke="#A7F3D0"/>
      <circle cx="16" cy="16" r="12" fill="#10B981"/><text x="16" y="20" text-anchor="middle" class="page-num">10</text>
      <text x="36" y="18" class="page-name">/assinatura</text>
      <text x="10" y="38" class="page-desc">Gerenciar assinatura</text>
      <text x="10" y="54" class="page-features">• Plano atual + upgrade</text>
      <text x="10" y="68" class="page-features">• Histórico de faturas</text>
      <text x="10" y="82" class="page-features">• Portal Stripe</text>
      <text x="10" y="96" class="page-features">• Cancelar/Reativar</text>
      <text x="10" y="110" class="page-features">• Comparar planos</text>
      <rect x="10" y="148" width="44" height="14" rx="3" fill="#10B981"/><text x="32" y="158" text-anchor="middle" font-size="7" font-weight="700" fill="white">NOVA</text>
    </g>

    <!-- P11: Histórico -->
    <g transform="translate(635, 60)">
      <rect width="190" height="170" rx="12" fill="#ECFDF5" stroke="#A7F3D0"/>
      <circle cx="16" cy="16" r="12" fill="#10B981"/><text x="16" y="20" text-anchor="middle" class="page-num">11</text>
      <text x="36" y="18" class="page-name">/historico</text>
      <text x="10" y="38" class="page-desc">Histórico completo</text>
      <text x="10" y="54" class="page-features">• Timeline animada</text>
      <text x="10" y="68" class="page-features">• Filtros por data/tipo</text>
      <text x="10" y="82" class="page-features">• Exportar CSV</text>
      <text x="10" y="96" class="page-features">• Gráfico de gastos</text>
      <text x="10" y="110" class="page-features">• PD Points ganhos</text>
      <rect x="10" y="148" width="44" height="14" rx="3" fill="#10B981"/><text x="32" y="158" text-anchor="middle" font-size="7" font-weight="700" fill="white">NOVA</text>
    </g>

    <!-- P12: Favoritos -->
    <g transform="translate(120, 245)">
      <rect width="190" height="170" rx="12" fill="#ECFDF5" stroke="#A7F3D0"/>
      <circle cx="16" cy="16" r="12" fill="#10B981"/><text x="16" y="20" text-anchor="middle" class="page-num">12</text>
      <text x="36" y="18" class="page-name">/favoritos</text>
      <text x="10" y="38" class="page-desc">Lista com drag-drop</text>
      <text x="10" y="54" class="page-features">• Drag & drop reorder</text>
      <text x="10" y="68" class="page-features">• Alerta de preço</text>
      <text x="10" y="82" class="page-features">• "Comprar todos"</text>
      <text x="10" y="96" class="page-features">• Share lista</text>
      <text x="10" y="110" class="page-features">• Pasta de coleções</text>
      <rect x="10" y="148" width="44" height="14" rx="3" fill="#10B981"/><text x="32" y="158" text-anchor="middle" font-size="7" font-weight="700" fill="white">NOVA</text>
    </g>

    <!-- P13: Configurações -->
    <g transform="translate(430, 245)">
      <rect width="190" height="170" rx="12" fill="#ECFDF5" stroke="#A7F3D0"/>
      <circle cx="16" cy="16" r="12" fill="#10B981"/><text x="16" y="20" text-anchor="middle" class="page-num">13</text>
      <text x="36" y="18" class="page-name">/configuracoes</text>
      <text x="10" y="38" class="page-desc">Todas as configs</text>
      <text x="10" y="54" class="page-features">• Perfil editável</text>
      <text x="10" y="68" class="page-features">• Toggle notificações</text>
      <text x="10" y="82" class="page-features">• Dark/Light/Auto</text>
      <text x="10" y="96" class="page-features">• 2FA setup</text>
      <text x="10" y="110" class="page-features">• Deletar conta</text>
      <rect x="10" y="148" width="44" height="14" rx="3" fill="#10B981"/><text x="32" y="158" text-anchor="middle" font-size="7" font-weight="700" fill="white">NOVA</text>
    </g>
  </g>

  <!-- ==================== CONTEÚDO E COMUNIDADE [5] ==================== -->
  <g transform="translate(40, 840)">
    <rect width="860" height="360" rx="16" fill="white" stroke="#DDD6FE" stroke-width="2" filter="url(#shadow)"/>
    <rect width="860" height="44" rx="16" fill="url(#gContent)"/>
    <rect y="30" width="860" height="14" fill="url(#gContent)"/>
    <text x="430" y="28" text-anchor="middle" class="cat-title">🎨 CONTEÚDO E COMUNIDADE — 5 Páginas Novas</text>

    <!-- P14: Blog -->
    <g transform="translate(20, 60)">
      <rect width="190" height="170" rx="12" fill="#F5F3FF" stroke="#DDD6FE"/>
      <circle cx="16" cy="16" r="12" fill="#8B5CF6"/><text x="16" y="20" text-anchor="middle" class="page-num">14</text>
      <text x="36" y="18" class="page-name">/blog</text>
      <text x="10" y="38" class="page-desc">Blog com categorias</text>
      <text x="10" y="54" class="page-features">• Post destaque hero</text>
      <text x="10" y="68" class="page-features">• Grid animado</text>
      <text x="10" y="82" class="page-features">• Filtro por categoria</text>
      <text x="10" y="96" class="page-features">• Busca integrada</text>
      <text x="10" y="110" class="page-features">• Newsletter signup</text>
      <rect x="10" y="148" width="44" height="14" rx="3" fill="#8B5CF6"/><text x="32" y="158" text-anchor="middle" font-size="7" font-weight="700" fill="white">NOVA</text>
    </g>

    <!-- P15: Post -->
    <g transform="translate(225, 60)">
      <rect width="190" height="170" rx="12" fill="#F5F3FF" stroke="#DDD6FE"/>
      <circle cx="16" cy="16" r="12" fill="#8B5CF6"/><text x="16" y="20" text-anchor="middle" class="page-num">15</text>
      <text x="36" y="18" class="page-name">/post/[slug]</text>
      <text x="10" y="38" class="page-desc">Página de post</text>
      <text x="10" y="54" class="page-features">• Reading progress bar</text>
      <text x="10" y="68" class="page-features">• Table of contents</text>
      <text x="10" y="82" class="page-features">• Share buttons</text>
      <text x="10" y="96" class="page-features">• Related posts</text>
      <text x="10" y="110" class="page-features">• Comentários</text>
      <rect x="10" y="148" width="44" height="14" rx="3" fill="#8B5CF6"/><text x="32" y="158" text-anchor="middle" font-size="7" font-weight="700" fill="white">NOVA</text>
    </g>

    <!-- P16: Comunidade -->
    <g transform="translate(430, 60)">
      <rect width="190" height="170" rx="12" fill="#F5F3FF" stroke="#DDD6FE"/>
      <circle cx="16" cy="16" r="12" fill="#8B5CF6"/><text x="16" y="20" text-anchor="middle" class="page-num">16</text>
      <text x="36" y="18" class="page-name">/comunidade</text>
      <text x="10" y="38" class="page-desc">Feed social</text>
      <text x="10" y="54" class="page-features">• Criar post com mídia</text>
      <text x="10" y="68" class="page-features">• Like/Comment/Share</text>
      <text x="10" y="82" class="page-features">• Tabs por tipo</text>
      <text x="10" y="96" class="page-features">• Trending sidebar</text>
      <text x="10" y="110" class="page-features">• Infinite scroll</text>
      <rect x="10" y="148" width="44" height="14" rx="3" fill="#8B5CF6"/><text x="32" y="158" text-anchor="middle" font-size="7" font-weight="700" fill="white">NOVA</text>
    </g>

    <!-- P17: Depoimentos -->
    <g transform="translate(635, 60)">
      <rect width="190" height="170" rx="12" fill="#F5F3FF" stroke="#DDD6FE"/>
      <circle cx="16" cy="16" r="12" fill="#8B5CF6"/><text x="16" y="20" text-anchor="middle" class="page-num">17</text>
      <text x="36" y="18" class="page-name">/depoimentos</text>
      <text x="10" y="38" class="page-desc">Vídeo depoimentos</text>
      <text x="10" y="54" class="page-features">• Video carousel</text>
      <text x="10" y="68" class="page-features">• Auto-play thumbnails</text>
      <text x="10" y="82" class="page-features">• Text reviews</text>
      <text x="10" y="96" class="page-features">• Rating distribution</text>
      <text x="10" y="110" class="page-features">• Stats de satisfação</text>
      <rect x="10" y="148" width="44" height="14" rx="3" fill="#8B5CF6"/><text x="32" y="158" text-anchor="middle" font-size="7" font-weight="700" fill="white">NOVA</text>
    </g>

    <!-- P18: FAQ -->
    <g transform="translate(225, 245)">
      <rect width="190" height="80" rx="12" fill="#F5F3FF" stroke="#DDD6FE"/>
      <circle cx="16" cy="16" r="12" fill="#8B5CF6"/><text x="16" y="20" text-anchor="middle" class="page-num">18</text>
      <text x="36" y="18" class="page-name">/faq</text>
      <text x="10" y="38" class="page-desc">FAQ com acordeão animado</text>
      <text x="10" y="52" class="page-features">• Categorias filtráveis • Busca • Expand smooth</text>
      <rect x="10" y="60" width="44" height="14" rx="3" fill="#2563EB"/><text x="32" y="70" text-anchor="middle" font-size="7" font-weight="700" fill="white">JÁ EXISTE</text>
    </g>
  </g>

  <!-- ==================== ADMIN E NEGÓCIO [7] ==================== -->
  <g transform="translate(920, 840)">
    <rect width="840" height="360" rx="16" fill="white" stroke="#CBD5E1" stroke-width="2" filter="url(#shadow)"/>
    <rect width="840" height="44" rx="16" fill="url(#gAdmin)"/>
    <rect y="30" width="840" height="14" fill="url(#gAdmin)"/>
    <text x="420" y="28" text-anchor="middle" class="cat-title">⚙️ ADMIN E NEGÓCIO — 7 Páginas Novas</text>

    <!-- P19: Admin Dashboard -->
    <g transform="translate(20, 60)">
      <rect width="190" height="170" rx="12" fill="#F1F5F9" stroke="#CBD5E1"/>
      <circle cx="16" cy="16" r="12" fill="#334155"/><text x="16" y="20" text-anchor="middle" class="page-num" fill="white">19</text>
      <text x="36" y="18" class="page-name">/admin</text>
      <text x="10" y="38" class="page-desc">Dashboard Admin</text>
      <text x="10" y="54" class="page-features">• Gráficos Recharts</text>
      <text x="10" y="68" class="page-features">• KPIs em tempo real</text>
      <text x="10" y="82" class="page-features">• Revenue chart</text>
      <text x="10" y="96" class="page-features">• Users growth</text>
      <text x="10" y="110" class="page-features">• Recent activity</text>
      <text x="10" y="124" class="page-features">• Quick CRUD links</text>
      <rect x="10" y="148" width="44" height="14" rx="3" fill="#334155"/><text x="32" y="158" text-anchor="middle" font-size="7" font-weight="700" fill="white">NOVA</text>
    </g>

    <!-- P20: Admin Usuários -->
    <g transform="translate(225, 60)">
      <rect width="190" height="170" rx="12" fill="#F1F5F9" stroke="#CBD5E1"/>
      <circle cx="16" cy="16" r="12" fill="#334155"/><text x="16" y="20" text-anchor="middle" class="page-num" fill="white">20</text>
      <text x="36" y="18" class="page-name">/admin/usuarios</text>
      <text x="10" y="38" class="page-desc">CRUD Usuários</text>
      <text x="10" y="54" class="page-features">• Tabela com paginação</text>
      <text x="10" y="68" class="page-features">• Busca + filtros</text>
      <text x="10" y="82" class="page-features">• Edit/Ban/Delete</text>
      <text x="10" y="96" class="page-features">• Verificação KYC</text>
      <text x="10" y="110" class="page-features">• Exportar dados</text>
      <rect x="10" y="148" width="44" height="14" rx="3" fill="#334155"/><text x="32" y="158" text-anchor="middle" font-size="7" font-weight="700" fill="white">NOVA</text>
    </g>

    <!-- P21: Admin Produtos -->
    <g transform="translate(430, 60)">
      <rect width="190" height="170" rx="12" fill="#F1F5F9" stroke="#CBD5E1"/>
      <circle cx="16" cy="16" r="12" fill="#334155"/><text x="16" y="20" text-anchor="middle" class="page-num" fill="white">21</text>
      <text x="36" y="18" class="page-name">/admin/produtos</text>
      <text x="10" y="38" class="page-desc">CRUD Produtos</text>
      <text x="10" y="54" class="page-features">• Listagem com preview</text>
      <text x="10" y="68" class="page-features">• Aprovar/Rejeitar</text>
      <text x="10" y="82" class="page-features">• Categorias manager</text>
      <text x="10" y="96" class="page-features">• Bulk actions</text>
      <text x="10" y="110" class="page-features">• Upload de imagens</text>
      <rect x="10" y="148" width="44" height="14" rx="3" fill="#334155"/><text x="32" y="158" text-anchor="middle" font-size="7" font-weight="700" fill="white">NOVA</text>
    </g>

    <!-- P22: Admin Pagamentos -->
    <g transform="translate(635, 60)">
      <rect width="190" height="170" rx="12" fill="#F1F5F9" stroke="#CBD5E1"/>
      <circle cx="16" cy="16" r="12" fill="#334155"/><text x="16" y="20" text-anchor="middle" class="page-num" fill="white">22</text>
      <text x="36" y="18" class="page-name">/admin/pagamentos</text>
      <text x="10" y="38" class="page-desc">Transações</text>
      <text x="10" y="54" class="page-features">• Tabela de transações</text>
      <text x="10" y="68" class="page-features">• Filtro por status/método</text>
      <text x="10" y="82" class="page-features">• Revenue por período</text>
      <text x="10" y="96" class="page-features">• Stripe sync</text>
      <text x="10" y="110" class="page-features">• Refund manual</text>
      <rect x="10" y="148" width="44" height="14" rx="3" fill="#334155"/><text x="32" y="158" text-anchor="middle" font-size="7" font-weight="700" fill="white">NOVA</text>
    </g>

    <!-- P23: Admin Afiliados -->
    <g transform="translate(120, 245)">
      <rect width="190" height="80" rx="12" fill="#F1F5F9" stroke="#CBD5E1"/>
      <circle cx="16" cy="16" r="12" fill="#334155"/><text x="16" y="20" text-anchor="middle" class="page-num" fill="white">23</text>
      <text x="36" y="18" class="page-name">/admin/afiliados</text>
      <text x="10" y="38" class="page-desc">Painel de Afiliados</text>
      <text x="10" y="52" class="page-features">• Gestão de comissões • Saques • Stats</text>
      <rect x="10" y="60" width="44" height="14" rx="3" fill="#334155"/><text x="32" y="70" text-anchor="middle" font-size="7" font-weight="700" fill="white">NOVA</text>
    </g>

    <!-- P24: Suporte -->
    <g transform="translate(430, 245)">
      <rect width="190" height="80" rx="12" fill="#F1F5F9" stroke="#CBD5E1"/>
      <circle cx="16" cy="16" r="12" fill="#334155"/><text x="16" y="20" text-anchor="middle" class="page-num" fill="white">24</text>
      <text x="36" y="18" class="page-name">/suporte</text>
      <text x="10" y="38" class="page-desc">Central + Ticket</text>
      <text x="10" y="52" class="page-features">• Chat IA • Tickets • FAQ links • Email</text>
      <rect x="10" y="60" width="44" height="14" rx="3" fill="#2563EB"/><text x="32" y="70" text-anchor="middle" font-size="7" font-weight="700" fill="white">JÁ EXISTE</text>
    </g>

    <!-- P25: API Docs -->
    <g transform="translate(635, 245)">
      <rect width="190" height="80" rx="12" fill="#F1F5F9" stroke="#CBD5E1"/>
      <circle cx="16" cy="16" r="12" fill="#334155"/><text x="16" y="20" text-anchor="middle" class="page-num" fill="white">25</text>
      <text x="36" y="18" class="page-name">/api-docs</text>
      <text x="10" y="38" class="page-desc">Documentação da API</text>
      <text x="10" y="52" class="page-features">• Swagger UI • Auth docs • Examples</text>
      <rect x="10" y="60" width="44" height="14" rx="3" fill="#334155"/><text x="32" y="70" text-anchor="middle" font-size="7" font-weight="700" fill="white">NOVA</text>
    </g>
  </g>

  <!-- ==================== PÁGINAS EXISTENTES [13] ==================== -->
  <g transform="translate(40, 1240)">
    <rect width="1720" height="210" rx="16" fill="white" stroke="#BFDBFE" stroke-width="2" filter="url(#shadow)"/>
    <rect width="1720" height="44" rx="16" fill="#2563EB"/>
    <rect y="30" width="1720" height="14" fill="#2563EB"/>
    <text x="860" y="28" text-anchor="middle" class="cat-title">✅ PÁGINAS JÁ EXISTENTES — 13 Páginas (São evoluídas, NÃO apagadas)</text>

    <!-- Row of existing pages -->
    <g transform="translate(20, 55)">
      <!-- Login -->
      <rect width="120" height="60" rx="8" fill="#EFF6FF" stroke="#BFDBFE"/>
      <circle cx="12" cy="12" r="8" fill="#2563EB"/><text x="12" y="15" text-anchor="middle" font-size="7" font-weight="700" fill="white">✓</text>
      <text x="26" y="14" font-size="10" font-weight="700" fill="#0F172A">/login</text>
      <text x="8" y="32" font-size="8" fill="#64748B">Login + OAuth</text>
      <text x="8" y="44" font-size="7" fill="#94A3B8">+2FA • +Remember</text>

      <!-- Cadastro -->
      <rect x="130" width="120" height="60" rx="8" fill="#EFF6FF" stroke="#BFDBFE"/>
      <circle cx="142" cy="12" r="8" fill="#2563EB"/><text x="142" y="15" text-anchor="middle" font-size="7" font-weight="700" fill="white">✓</text>
      <text x="156" y="14" font-size="10" font-weight="700" fill="#0F172A">/cadastro</text>
      <text x="138" y="32" font-size="8" fill="#64748B">Cadastro completo</text>
      <text x="138" y="44" font-size="7" fill="#94A3B8">+Social • +Terms</text>

      <!-- Categorias -->
      <rect x="260" width="120" height="60" rx="8" fill="#EFF6FF" stroke="#BFDBFE"/>
      <circle cx="272" cy="12" r="8" fill="#2563EB"/><text x="272" y="15" text-anchor="middle" font-size="7" font-weight="700" fill="white">✓</text>
      <text x="286" y="14" font-size="10" font-weight="700" fill="#0F172A">/categorias</text>
      <text x="268" y="32" font-size="8" fill="#64748B">20+ categorias</text>
      <text x="268" y="44" font-size="7" fill="#94A3B8">Grid animado</text>

      <!-- Categoria/[slug] -->
      <rect x="390" width="130" height="60" rx="8" fill="#EFF6FF" stroke="#BFDBFE"/>
      <circle cx="402" cy="12" r="8" fill="#2563EB"/><text x="402" y="15" text-anchor="middle" font-size="7" font-weight="700" fill="white">✓</text>
      <text x="416" y="14" font-size="10" font-weight="700" fill="#0F172A">/categoria/[slug]</text>
      <text x="398" y="32" font-size="8" fill="#64748B">Produtos + Filtros</text>
      <text x="398" y="44" font-size="7" fill="#94A3B8">Subcats • Preço</text>

      <!-- Produto/[id] -->
      <rect x="530" width="120" height="60" rx="8" fill="#EFF6FF" stroke="#BFDBFE"/>
      <circle cx="542" cy="12" r="8" fill="#2563EB"/><text x="542" y="15" text-anchor="middle" font-size="7" font-weight="700" fill="white">✓</text>
      <text x="556" y="14" font-size="10" font-weight="700" fill="#0F172A">/produto/[id]</text>
      <text x="538" y="32" font-size="8" fill="#64748B">Detalhe do produto</text>
      <text x="538" y="44" font-size="7" fill="#94A3B8">+Chat • +Review</text>

      <!-- Anunciar -->
      <rect x="660" width="120" height="60" rx="8" fill="#EFF6FF" stroke="#BFDBFE"/>
      <circle cx="672" cy="12" r="8" fill="#2563EB"/><text x="672" y="15" text-anchor="middle" font-size="7" font-weight="700" fill="white">✓</text>
      <text x="686" y="14" font-size="10" font-weight="700" fill="#0F172A">/anunciar</text>
      <text x="668" y="32" font-size="8" fill="#64748B">Criar anúncio</text>
      <text x="668" y="44" font-size="7" fill="#94A3B8">3 planos • Upload</text>

      <!-- Conta -->
      <rect x="790" width="120" height="60" rx="8" fill="#EFF6FF" stroke="#BFDBFE"/>
      <circle cx="802" cy="12" r="8" fill="#2563EB"/><text x="802" y="15" text-anchor="middle" font-size="7" font-weight="700" fill="white">✓</text>
      <text x="816" y="14" font-size="10" font-weight="700" fill="#0F172A">/conta</text>
      <text x="798" y="32" font-size="8" fill="#64748B">Dashboard conta</text>
      <text x="798" y="44" font-size="7" fill="#94A3B8">Stats • Pedidos</text>

      <!-- Conta/Compras -->
      <rect x="920" width="120" height="60" rx="8" fill="#EFF6FF" stroke="#BFDBFE"/>
      <circle cx="932" cy="12" r="8" fill="#2563EB"/><text x="932" y="15" text-anchor="middle" font-size="7" font-weight="700" fill="white">✓</text>
      <text x="946" y="14" font-size="10" font-weight="700" fill="#0F172A">/conta/compras</text>
      <text x="928" y="32" font-size="8" fill="#64748B">Minhas compras</text>
      <text x="928" y="44" font-size="7" fill="#94A3B8">Status • Chat</text>

      <!-- Conta/Vendas -->
      <rect x="1050" width="120" height="60" rx="8" fill="#EFF6FF" stroke="#BFDBFE"/>
      <circle cx="1062" cy="12" r="8" fill="#2563EB"/><text x="1062" y="15" text-anchor="middle" font-size="7" font-weight="700" fill="white">✓</text>
      <text x="1076" y="14" font-size="10" font-weight="700" fill="#0F172A">/conta/vendas</text>
      <text x="1058" y="32" font-size="8" fill="#64748B">Minhas vendas</text>
      <text x="1058" y="44" font-size="7" fill="#94A3B8">Receita • Status</text>

      <!-- Conta/Anuncios -->
      <rect x="1180" width="130" height="60" rx="8" fill="#EFF6FF" stroke="#BFDBFE"/>
      <circle cx="1192" cy="12" r="8" fill="#2563EB"/><text x="1192" y="15" text-anchor="middle" font-size="7" font-weight="700" fill="white">✓</text>
      <text x="1206" y="14" font-size="10" font-weight="700" fill="#0F172A">/conta/anuncios</text>
      <text x="1188" y="32" font-size="8" fill="#64748B">Meus anúncios</text>
      <text x="1188" y="44" font-size="7" fill="#94A3B8">Pausar • Editar</text>

      <!-- Conta/Retiradas -->
      <rect x="1320" width="130" height="60" rx="8" fill="#EFF6FF" stroke="#BFDBFE"/>
      <circle cx="1332" cy="12" r="8" fill="#2563EB"/><text x="1332" y="15" text-anchor="middle" font-size="7" font-weight="700" fill="white">✓</text>
      <text x="1346" y="14" font-size="10" font-weight="700" fill="#0F172A">/conta/retiradas</text>
      <text x="1328" y="32" font-size="8" fill="#64748B">Saques</text>
      <text x="1328" y="44" font-size="7" fill="#94A3B8">Normal • Turbo</text>

      <!-- Conta/Verificacoes -->
      <rect x="1460" width="140" height="60" rx="8" fill="#EFF6FF" stroke="#BFDBFE"/>
      <circle cx="1472" cy="12" r="8" fill="#2563EB"/><text x="1472" y="15" text-anchor="middle" font-size="7" font-weight="700" fill="white">✓</text>
      <text x="1486" y="14" font-size="10" font-weight="700" fill="#0F172A">/conta/verificacoes</text>
      <text x="1468" y="32" font-size="8" fill="#64748B">KYC</text>
      <text x="1468" y="44" font-size="7" fill="#94A3B8">Doc • Selfie</text>
    </g>

    <!-- Second row of existing pages -->
    <g transform="translate(20, 130)">
      <rect width="140" height="60" rx="8" fill="#EFF6FF" stroke="#BFDBFE"/>
      <text x="10" y="16" font-size="10" font-weight="700" fill="#0F172A">/como-funciona</text>
      <text x="10" y="32" font-size="8" fill="#64748B">3 passos</text>
      <text x="10" y="44" font-size="7" fill="#94A3B8">Evoluído com animação</text>

      <rect x="150" width="120" height="60" rx="8" fill="#EFF6FF" stroke="#BFDBFE"/>
      <text x="160" y="16" font-size="10" font-weight="700" fill="#0F172A">/tarifas</text>
      <text x="160" y="32" font-size="8" fill="#64748B">3 planos + prazos</text>

      <rect x="280" width="130" height="60" rx="8" fill="#EFF6FF" stroke="#BFDBFE"/>
      <text x="290" y="16" font-size="10" font-weight="700" fill="#0F172A">/pagamentos</text>
      <text x="290" y="32" font-size="8" fill="#64748B">6 métodos</text>

      <rect x="420" width="140" height="60" rx="8" fill="#EFF6FF" stroke="#BFDBFE"/>
      <text x="430" y="16" font-size="10" font-weight="700" fill="#0F172A">/recompensas</text>
      <text x="430" y="32" font-size="8" fill="#64748B">PD Points</text>

      <rect x="570" width="110" height="60" rx="8" fill="#EFF6FF" stroke="#BFDBFE"/>
      <text x="580" y="16" font-size="10" font-weight="700" fill="#0F172A">/termos</text>

      <rect x="690" width="120" height="60" rx="8" fill="#EFF6FF" stroke="#BFDBFE"/>
      <text x="700" y="16" font-size="10" font-weight="700" fill="#0F172A">/privacidade</text>

      <rect x="820" width="120" height="60" rx="8" fill="#EFF6FF" stroke="#BFDBFE"/>
      <text x="830" y="16" font-size="10" font-weight="700" fill="#0F172A">/reembolso</text>
    </g>
  </g>

  <!-- ==================== ARQUITETURA + STATS ==================== -->
  <g transform="translate(40, 1480)">
    <rect width="860" height="200" rx="16" fill="#0F172A" filter="url(#shadow)"/>
    <text x="430" y="30" text-anchor="middle" font-size="16" font-weight="800" fill="white">📊 NUMEROS DO PROJETO</text>

    <g transform="translate(30, 50)">
      <text x="0" y="0" font-size="36" font-weight="900" fill="#2563EB">38</text>
      <text x="0" y="20" font-size="11" fill="#94A3B8">Páginas totais</text>
      <text x="100" y="0" font-size="36" font-weight="900" fill="#F59E0B">25</text>
      <text x="100" y="20" font-size="11" fill="#94A3B8">Páginas novas</text>
      <text x="200" y="0" font-size="36" font-weight="900" fill="#10B981">13</text>
      <text x="200" y="20" font-size="11" fill="#94A3B8">Já existem</text>
      <text x="300" y="0" font-size="36" font-weight="900" fill="#8B5CF6">18</text>
      <text x="300" y="20" font-size="11" fill="#94A3B8">Tabelas DB</text>
    </g>

    <g transform="translate(30, 110)">
      <rect width="120" height="28" rx="14" fill="rgba(37,99,235,0.2)"/>
      <text x="60" y="18" text-anchor="middle" font-size="9" font-weight="600" fill="#60A5FA">Next.js 14</text>
      <rect x="130" width="120" height="28" rx="14" fill="rgba(37,99,235,0.2)"/>
      <text x="190" y="18" text-anchor="middle" font-size="9" font-weight="600" fill="#60A5FA">TypeScript</text>
      <rect x="260" width="120" height="28" rx="14" fill="rgba(37,99,235,0.2)"/>
      <text x="320" y="18" text-anchor="middle" font-size="9" font-weight="600" fill="#60A5FA">TailwindCSS</text>
      <rect x="390" width="120" height="28" rx="14" fill="rgba(37,99,235,0.2)"/>
      <text x="450" y="18" text-anchor="middle" font-size="9" font-weight="600" fill="#60A5FA">Prisma</text>
      <rect x="520" width="120" height="28" rx="14" fill="rgba(37,99,235,0.2)"/>
      <text x="580" y="18" text-anchor="middle" font-size="9" font-weight="600" fill="#60A5FA">PostgreSQL</text>
      <rect x="650" width="120" height="28" rx="14" fill="rgba(37,99,235,0.2)"/>
      <text x="710" y="18" text-anchor="middle" font-size="9" font-weight="600" fill="#60A5FA">Stripe</text>
    </g>

    <g transform="translate(30, 150)">
      <rect width="120" height="28" rx="14" fill="rgba(139,92,246,0.2)"/>
      <text x="60" y="18" text-anchor="middle" font-size="9" font-weight="600" fill="#A78BFA">Framer Motion</text>
      <rect x="130" width="120" height="28" rx="14" fill="rgba(139,92,246,0.2)"/>
      <text x="190" y="18" text-anchor="middle" font-size="9" font-weight="600" fill="#A78BFA">React Three Fiber</text>
      <rect x="260" width="120" height="28" rx="14" fill="rgba(139,92,246,0.2)"/>
      <text x="320" y="18" text-anchor="middle" font-size="9" font-weight="600" fill="#A78BFA">NextAuth v5</text>
      <rect x="390" width="120" height="28" rx="14" fill="rgba(139,92,246,0.2)"/>
      <text x="450" y="18" text-anchor="middle" font-size="9" font-weight="600" fill="#A78BFA">Redis</text>
      <rect x="520" width="120" height="28" rx="14" fill="rgba(139,92,246,0.2)"/>
      <text x="580" y="18" text-anchor="middle" font-size="9" font-weight="600" fill="#A78BFA">Recharts</text>
      <rect x="650" width="120" height="28" rx="14" fill="rgba(139,92,246,0.2)"/>
      <text x="710" y="18" text-anchor="middle" font-size="9" font-weight="600" fill="#A78BFA">Swagger</text>
    </g>
  </g>

  <!-- Navigation Flow -->
  <g transform="translate(920, 1480)">
    <rect width="840" height="200" rx="16" fill="white" stroke="#E2E8F0" filter="url(#shadow)"/>
    <text x="420" y="28" text-anchor="middle" font-size="16" font-weight="800" fill="#0F172A">🔄 FLUXO DE NAVEGAÇÃO</text>

    <text x="30" y="60" font-size="11" font-weight="700" fill="#0F172A">Visitante → Home → Categorias → Produto → Checkout → Obrigado</text>
    <text x="30" y="80" font-size="11" font-weight="700" fill="#0F172A">Visitante → Planos → Comparativo → Checkout → Dashboard</text>
    <text x="30" y="100" font-size="11" font-weight="700" fill="#0F172A">Visitante → Ofertas → Produto → Login/Cadastro → Checkout</text>
    <text x="30" y="120" font-size="11" font-weight="700" fill="#0F172A">Usuário → Dashboard → Perfil → Configurações</text>
    <text x="30" y="140" font-size="11" font-weight="700" fill="#0F172A">Usuário → Comunidade → Criar Post → Blog</text>
    <text x="30" y="160" font-size="11" font-weight="700" fill="#0F172A">Vendedor → Anunciar → Meus Anúncios → Vendas → Retiradas</text>
    <text x="30" y="180" font-size="11" font-weight="700" fill="#0F172A">Admin → Dashboard → CRUD Users/Products → Pagamentos → Afiliados</text>
  </g>

  <!-- Footer -->
  <rect y="1720" width="1800" height="60" fill="#0F172A"/>
  <text x="900" y="1750" text-anchor="middle" font-size="14" font-weight="700" fill="#60A5FA">PLAYDEX v2.0 — Site Map Completo • 38 Páginas • Aguardando Aprovação 🟢</text>
</svg>
