<svg xmlns="http://www.w3.org/2000/svg" viewBox="0 0 1400 4400" width="1400" height="4400">
  <defs>
    <linearGradient id="hdr" x1="0%" y1="0%" x2="100%" y2="0%">
      <stop offset="0%" style="stop-color:#2563EB"/>
      <stop offset="100%" style="stop-color:#7C3AED"/>
    </linearGradient>
    <filter id="shadow">
      <feDropShadow dx="0" dy="2" stdDeviation="6" flood-color="#0002"/>
    </filter>
    <style>
      text { font-family: 'Inter', 'Segoe UI', system-ui, sans-serif; }
      .title { font-size: 20px; font-weight: 800; fill: #0F172A; }
      .subtitle { font-size: 13px; fill: #64748B; }
      .label { font-size: 11px; fill: #94A3B8; font-weight: 600; }
      .value { font-size: 12px; fill: #334155; font-weight: 500; }
      .page-title { font-size: 16px; font-weight: 800; fill: #2563EB; }
      .section { font-size: 11px; font-weight: 700; fill: #64748B; text-transform: uppercase; letter-spacing: 1px; }
    </style>
  </defs>

  <!-- Background -->
  <rect width="1400" height="4400" fill="#F8FAFC" rx="0"/>

  <!-- Header -->
  <rect width="1400" height="80" fill="url(#hdr)" rx="0"/>
  <text x="700" y="35" text-anchor="middle" font-size="28" font-weight="800" fill="white">PLAYDEX — WIREFRAMES DAS 12 PÁGINAS NOVAS</text>
  <text x="700" y="58" text-anchor="middle" font-size="14" fill="rgba(255,255,255,0.8)">Layout mobile-first • Dark/Light Mode • Animações Framer Motion</text>

  <!-- ==================== PAGE 1: /ofertas ==================== -->
  <g transform="translate(40, 100)">
    <rect width="410" height="620" rx="16" fill="white" filter="url(#shadow)"/>
    <rect width="410" height="48" rx="16" fill="#2563EB"/>
    <rect y="32" width="410" height="16" fill="#2563EB"/>
    <text x="205" y="30" text-anchor="middle" class="page-title" fill="white">01 — /ofertas</text>

    <!-- Hero Banner -->
    <rect x="16" y="64" width="378" height="100" rx="12" fill="#EFF6FF" stroke="#BFDBFE" stroke-width="1"/>
    <text x="205" y="90" text-anchor="middle" class="title" font-size="15">🔥 OFERTA RELÂMPAGO</text>
    <text x="205" y="110" text-anchor="middle" class="subtitle">Até 70% OFF em contas premium</text>
    <!-- Timer -->
    <rect x="120" y="120" width="50" height="28" rx="6" fill="#0F172A"/>
    <text x="145" y="139" text-anchor="middle" font-size="12" font-weight="700" fill="white">02</text>
    <rect x="175" y="120" width="50" height="28" rx="6" fill="#0F172A"/>
    <text x="200" y="139" text-anchor="middle" font-size="12" font-weight="700" fill="white">14</text>
    <rect x="230" y="120" width="50" height="28" rx="6" fill="#0F172A"/>
    <text x="255" y="139" text-anchor="middle" font-size="12" font-weight="700" fill="white">37</text>
    <text x="168" y="128" font-size="8" fill="#64748B">:</text>
    <text x="223" y="128" font-size="8" fill="#64748B">:</text>

    <!-- Category tabs -->
    <g transform="translate(16, 178)">
      <rect width="80" height="28" rx="14" fill="#2563EB"/>
      <text x="40" y="18" text-anchor="middle" font-size="10" font-weight="600" fill="white">Todas</text>
      <rect x="88" width="80" height="28" rx="14" fill="#F1F5F9" stroke="#E2E8F0"/>
      <text x="128" y="18" text-anchor="middle" font-size="10" font-weight="500" fill="#64748B">Contas</text>
      <rect x="176" width="80" height="28" rx="14" fill="#F1F5F9" stroke="#E2E8F0"/>
      <text x="216" y="18" text-anchor="middle" font-size="10" font-weight="500" fill="#64748B">Keys</text>
      <rect x="264" width="80" height="28" rx="14" fill="#F1F5F9" stroke="#E2E8F0"/>
      <text x="304" y="18" text-anchor="middle" font-size="10" font-weight="500" fill="#64748B">Gold</text>
    </g>

    <!-- Product cards grid -->
    <g transform="translate(16, 220)">
      <rect width="180" height="180" rx="12" fill="#F8FAFC" stroke="#E2E8F0"/>
      <rect x="8" y="8" width="164" height="80" rx="8" fill="#E2E8F0"/>
      <rect x="120" y="12" width="48" height="18" rx="4" fill="#EF4444"/>
      <text x="144" y="24" text-anchor="middle" font-size="9" font-weight="700" fill="white">-60%</text>
      <text x="14" y="106" class="label">Valorant</text>
      <text x="14" y="122" class="value" font-weight="700">Conta Diamante + Skins</text>
      <text x="14" y="138" font-size="10" fill="#94A3B8" text-decoration="line-through">R$ 129,90</text>
      <text x="14" y="158" font-size="16" font-weight="800" fill="#2563EB">R$ 49,90</text>
      <rect x="110" y="146" width="62" height="24" rx="6" fill="#2563EB"/>
      <text x="141" y="162" text-anchor="middle" font-size="10" font-weight="600" fill="white">Comprar</text>

      <rect x="190" width="180" height="180" rx="12" fill="#F8FAFC" stroke="#E2E8F0"/>
      <rect x="198" y="8" width="164" height="80" rx="8" fill="#E2E8F0"/>
      <rect x="310" y="12" width="48" height="18" rx="4" fill="#EF4444"/>
      <text x="334" y="24" text-anchor="middle" font-size="9" font-weight="700" fill="white">-45%</text>
    </g>

    <g transform="translate(16, 410)">
      <rect width="180" height="180" rx="12" fill="#F8FAFC" stroke="#E2E8F0"/>
      <rect x="8" y="8" width="164" height="80" rx="8" fill="#E2E8F0"/>
      <rect x="190" y="0" width="180" height="180" rx="12" fill="#F8FAFC" stroke="#E2E8F0"/>
      <rect x="198" y="8" width="164" height="80" rx="8" fill="#E2E8F0"/>
    </g>
  </g>

  <!-- ==================== PAGE 2: /planos-comparativo ==================== -->
  <g transform="translate(490, 100)">
    <rect width="410" height="620" rx="16" fill="white" filter="url(#shadow)"/>
    <rect width="410" height="48" rx="16" fill="#2563EB"/>
    <rect y="32" width="410" height="16" fill="#2563EB"/>
    <text x="205" y="30" text-anchor="middle" class="page-title" fill="white">02 — /planos-comparativo</text>

    <!-- Toggle -->
    <g transform="translate(100, 64)">
      <rect width="210" height="36" rx="18" fill="#F1F5F9"/>
      <rect x="4" y="4" width="100" height="28" rx="14" fill="#2563EB"/>
      <text x="54" y="23" text-anchor="middle" font-size="11" font-weight="600" fill="white">Mensal</text>
      <text x="160" y="23" text-anchor="middle" font-size="11" font-weight="500" fill="#64748B">Anual -20%</text>
    </g>

    <!-- Plan cards -->
    <g transform="translate(16, 115)">
      <!-- Prata -->
      <rect width="120" height="280" rx="12" fill="#F8FAFC" stroke="#E2E8F0"/>
      <text x="60" y="24" text-anchor="middle" font-size="11" font-weight="700" fill="#64748B">PRATA</text>
      <text x="60" y="54" text-anchor="middle" font-size="22" font-weight="800" fill="#0F172A">9,9%</text>
      <text x="60" y="72" text-anchor="middle" font-size="10" fill="#94A3B8">taxa/venda</text>
      <line x1="16" y1="82" x2="104" y2="82" stroke="#E2E8F0"/>
      <text x="20" y="102" font-size="9" fill="#64748B">✓ Anúncio padrão</text>
      <text x="20" y="120" font-size="9" fill="#64748B">✓ Suporte ticket</text>
      <text x="20" y="138" font-size="9" fill="#CBD5E1">✗ Destaque</text>
      <text x="20" y="156" font-size="9" fill="#CBD5E1">✗ Badge premium</text>
      <text x="20" y="174" font-size="9" fill="#CBD5E1">✗ Relatórios</text>
      <rect x="16" y="240" width="88" height="28" rx="8" fill="#F1F5F9" stroke="#E2E8F0"/>
      <text x="60" y="258" text-anchor="middle" font-size="10" font-weight="600" fill="#64748B">Começar</text>

      <!-- Ouro -->
      <rect x="130" width="120" height="280" rx="12" fill="#EFF6FF" stroke="#2563EB" stroke-width="2"/>
      <rect x="154" y="-10" width="72" height="20" rx="10" fill="#2563EB"/>
      <text x="190" y="4" text-anchor="middle" font-size="9" font-weight="700" fill="white">POPULAR</text>
      <text x="190" y="34" text-anchor="middle" font-size="11" font-weight="700" fill="#2563EB">OURO</text>
      <text x="190" y="64" text-anchor="middle" font-size="22" font-weight="800" fill="#0F172A">11,9%</text>
      <text x="190" y="82" text-anchor="middle" font-size="10" fill="#94A3B8">taxa/venda</text>
      <line x1="146" y1="92" x2="234" y2="92" stroke="#BFDBFE"/>
      <text x="150" y="112" font-size="9" fill="#2563EB">✓ Anúncio destaque</text>
      <text x="150" y="130" font-size="9" fill="#2563EB">✓ Suporte prioritário</text>
      <text x="150" y="148" font-size="9" fill="#2563EB">✓ Badge Ouro</text>
      <text x="150" y="166" font-size="9" fill="#2563EB">✓ +5 PD Points</text>
      <text x="150" y="184" font-size="9" fill="#CBD5E1">✗ Relatórios</text>
      <rect x="146" y="240" width="88" height="28" rx="8" fill="#2563EB"/>
      <text x="190" y="258" text-anchor="middle" font-size="10" font-weight="600" fill="white">Começar</text>

      <!-- Diamante -->
      <rect x="260" width="120" height="280" rx="12" fill="#FAF5FF" stroke="#7C3AED" stroke-width="2"/>
      <text x="320" y="24" text-anchor="middle" font-size="11" font-weight="700" fill="#7C3AED">DIAMANTE</text>
      <text x="320" y="54" text-anchor="middle" font-size="22" font-weight="800" fill="#0F172A">12,9%</text>
      <text x="320" y="72" text-anchor="middle" font-size="10" fill="#94A3B8">taxa/venda</text>
      <line x1="276" y1="82" x2="364" y2="82" stroke="#E9D5FF"/>
      <text x="280" y="102" font-size="9" fill="#7C3AED">✓ Máxima visibilidade</text>
      <text x="280" y="120" font-size="9" fill="#7C3AED">✓ Suporte VIP</text>
      <text x="280" y="138" font-size="9" fill="#7C3AED">✓ Badge Diamante</text>
      <text x="280" y="156" font-size="9" fill="#7C3AED">✓ +15 PD Points</text>
      <text x="280" y="174" font-size="9" fill="#7C3AED">✓ Relatórios avançados</text>
      <rect x="276" y="240" width="88" height="28" rx="8" fill="#7C3AED"/>
      <text x="320" y="258" text-anchor="middle" font-size="10" font-weight="600" fill="white">Começar</text>
    </g>

    <!-- Comparison table snippet -->
    <g transform="translate(16, 420)">
      <text x="0" y="0" class="section">Comparação Detalhada</text>
      <rect y="12" width="378" height="170" rx="8" fill="#F8FAFC" stroke="#E2E8F0"/>
      <rect y="12" width="378" height="28" rx="8" fill="#F1F5F9"/>
      <rect y="36" width="378" height="4" fill="#F1F5F9"/>
      <text x="100" y="30" text-anchor="middle" font-size="9" font-weight="600" fill="#94A3B8">FEATURE</text>
      <text x="220" y="30" text-anchor="middle" font-size="9" font-weight="600" fill="#94A3B8">PRATA</text>
      <text x="290" y="30" text-anchor="middle" font-size="9" font-weight="600" fill="#94A3B8">OURO</text>
      <text x="350" y="30" text-anchor="middle" font-size="9" font-weight="600" fill="#94A3B8">DIAM.</text>
      <text x="16" y="58" font-size="10" fill="#334155">Destaque na home</text>
      <text x="220" y="58" text-anchor="middle" font-size="12" fill="#CBD5E1">—</text>
      <text x="290" y="58" text-anchor="middle" font-size="12" fill="#2563EB">✓</text>
      <text x="350" y="58" text-anchor="middle" font-size="12" fill="#7C3AED">✓</text>
      <text x="16" y="78" font-size="10" fill="#334155">Badge exclusiva</text>
      <text x="220" y="78" text-anchor="middle" font-size="12" fill="#CBD5E1">—</text>
      <text x="290" y="78" text-anchor="middle" font-size="12" fill="#2563EB">✓</text>
      <text x="350" y="78" text-anchor="middle" font-size="12" fill="#7C3AED">✓</text>
      <text x="16" y="98" font-size="10" fill="#334155">Relatórios</text>
      <text x="220" y="98" text-anchor="middle" font-size="12" fill="#CBD5E1">—</text>
      <text x="290" y="98" text-anchor="middle" font-size="12" fill="#CBD5E1">—</text>
      <text x="350" y="98" text-anchor="middle" font-size="12" fill="#7C3AED">✓</text>
      <text x="16" y="118" font-size="10" fill="#334155">Suporte VIP</text>
      <text x="220" y="118" text-anchor="middle" font-size="12" fill="#CBD5E1">—</text>
      <text x="290" y="118" text-anchor="middle" font-size="12" fill="#CBD5E1">—</text>
      <text x="350" y="118" text-anchor="middle" font-size="12" fill="#7C3AED">✓</text>
    </g>
  </g>

  <!-- ==================== PAGE 3: /comunidade ==================== -->
  <g transform="translate(940, 100)">
    <rect width="410" height="620" rx="16" fill="white" filter="url(#shadow)"/>
    <rect width="410" height="48" rx="16" fill="#2563EB"/>
    <rect y="32" width="410" height="16" fill="#2563EB"/>
    <text x="205" y="30" text-anchor="middle" class="page-title" fill="white">03 — /comunidade</text>

    <!-- New post -->
    <rect x="16" y="64" width="378" height="72" rx="12" fill="#F8FAFC" stroke="#E2E8F0"/>
    <circle cx="44" cy="100" r="18" fill="#E2E8F0"/>
    <text x="44" y="104" text-anchor="middle" font-size="14">👤</text>
    <rect x="72" y="88" width="260" height="28" rx="14" fill="white" stroke="#E2E8F0"/>
    <text x="86" y="106" font-size="11" fill="#94A3B8">Compartilhe algo com a comunidade...</text>
    <rect x="342" y="90" width="40" height="24" rx="6" fill="#2563EB"/>
    <text x="362" y="106" text-anchor="middle" font-size="9" font-weight="600" fill="white">Post</text>

    <!-- Feed tabs -->
    <g transform="translate(16, 150)">
      <rect width="60" height="26" rx="13" fill="#2563EB"/>
      <text x="30" y="17" text-anchor="middle" font-size="10" font-weight="600" fill="white">Tudo</text>
      <rect x="68" width="70" height="26" rx="13" fill="#F1F5F9"/>
      <text x="103" y="17" text-anchor="middle" font-size="10" fill="#64748B">Dúvidas</text>
      <rect x="146" width="70" height="26" rx="13" fill="#F1F5F9"/>
      <text x="181" y="17" text-anchor="middle" font-size="10" fill="#64748B">Reviews</text>
      <rect x="224" width="70" height="26" rx="13" fill="#F1F5F9"/>
      <text x="259" y="17" text-anchor="middle" font-size="10" fill="#64748B">Dicas</text>
    </g>

    <!-- Post 1 -->
    <rect x="16" y="190" width="378" height="130" rx="12" fill="white" stroke="#E2E8F0"/>
    <circle cx="44" cy="218" r="16" fill="#DBEAFE"/>
    <text x="44" y="222" text-anchor="middle" font-size="12">🎮</text>
    <text x="68" y="214" font-size="12" font-weight="700" fill="#0F172A">LucasGamer</text>
    <text x="68" y="228" font-size="9" fill="#94A3B8">há 2h • Dica</text>
    <text x="28" y="254" font-size="11" fill="#334155">Acabei de comprar uma conta Diamante no Valorant por R$49! Chegou em 30 segundos. Review completo no post 👇</text>
    <rect x="28" y="268" width="180" height="80" rx="8" fill="#F1F5F9"/>
    <g transform="translate(28, 364)">
      <text font-size="11" fill="#64748B">❤️ 42  💬 8  🔗 Compartilhar</text>
    </g>

    <!-- Post 2 -->
    <rect x="16" y="335" width="378" height="100" rx="12" fill="white" stroke="#E2E8F0"/>
    <circle cx="44" cy="363" r="16" fill="#FEF3C7"/>
    <text x="44" y="367" text-anchor="middle" font-size="12">⭐</text>
    <text x="68" y="359" font-size="12" font-weight="700" fill="#0F172A">AnaPlays</text>
    <text x="68" y="373" font-size="9" fill="#94A3B8">há 5h • Review</text>
    <text x="28" y="399" font-size="11" fill="#334155">Vendedor nota 10! Recomendo o @PixelKing para keys Steam.</text>

    <!-- Trending sidebar -->
    <g transform="translate(16, 450)">
      <text x="0" y="0" class="section">Em Alta 🔥</text>
      <rect y="12" width="378" height="140" rx="10" fill="#F8FAFC" stroke="#E2E8F0"/>
      <text x="16" y="36" font-size="11" fill="#334155">#1</text>
      <text x="40" y="36" font-size="11" font-weight="600" fill="#0F172A">Black Myth Wukong Keys</text>
      <text x="16" y="60" font-size="11" fill="#334155">#2</text>
      <text x="40" y="60" font-size="11" font-weight="600" fill="#0F172A">Game Pass Ultimate R$14</text>
      <text x="16" y="84" font-size="11" fill="#334155">#3</text>
      <text x="40" y="84" font-size="11" font-weight="600" fill="#0F172A">Contas CS2 com Medalhas</text>
      <text x="16" y="108" font-size="11" fill="#334155">#4</text>
      <text x="40" y="108" font-size="11" font-weight="600" fill="#0F172A">V-Bucks mais barato</text>
      <text x="16" y="132" font-size="11" fill="#334155">#5</text>
      <text x="40" y="132" font-size="11" font-weight="600" fill="#0F172A">Roblox Premium Guide</text>
    </g>
  </g>

  <!-- ==================== PAGE 4: /afiliados ==================== -->
  <g transform="translate(40, 750)">
    <rect width="410" height="620" rx="16" fill="white" filter="url(#shadow)"/>
    <rect width="410" height="48" rx="16" fill="#7C3AED"/>
    <rect y="32" width="410" height="16" fill="#7C3AED"/>
    <text x="205" y="30" text-anchor="middle" class="page-title" fill="white">04 — /afiliados</text>

    <!-- Stats row -->
    <g transform="translate(16, 64)">
      <rect width="115" height="72" rx="10" fill="#F8FAFC" stroke="#E2E8F0"/>
      <text x="58" y="24" text-anchor="middle" font-size="9" fill="#94A3B8">Ganhos Totais</text>
      <text x="58" y="50" text-anchor="middle" font-size="18" font-weight="800" fill="#0F172A">R$2.340</text>

      <rect x="123" width="115" height="72" rx="10" fill="#F8FAFC" stroke="#E2E8F0"/>
      <text x="180" y="24" text-anchor="middle" font-size="9" fill="#94A3B8">Indicações</text>
      <text x="180" y="50" text-anchor="middle" font-size="18" font-weight="800" fill="#0F172A">87</text>

      <rect x="246" width="115" height="72" rx="10" fill="#F8FAFC" stroke="#E2E8F0"/>
      <text x="303" y="24" text-anchor="middle" font-size="9" fill="#94A3B8">Conversão</text>
      <text x="303" y="50" text-anchor="middle" font-size="18" font-weight="800" fill="#0F172A">34%</text>
    </g>

    <!-- Referral link -->
    <rect x="16" y="150" width="378" height="52" rx="10" fill="#FAF5FF" stroke="#E9D5FF"/>
    <text x="28" y="170" font-size="10" fill="#7C3AED" font-weight="600">Seu Link:</text>
    <text x="28" y="188" font-size="10" fill="#64748B">playdex.com.br/r/lucasgamer</text>
    <rect x="310" y="160" width="72" height="28" rx="6" fill="#7C3AED"/>
    <text x="346" y="178" text-anchor="middle" font-size="9" font-weight="600" fill="white">Copiar</text>

    <!-- Chart placeholder -->
    <rect x="16" y="218" width="378" height="120" rx="10" fill="#F8FAFC" stroke="#E2E8F0"/>
    <text x="205" y="242" text-anchor="middle" font-size="10" font-weight="600" fill="#94A3B8">Ganhos por Mês</text>
    <!-- Bars -->
    <rect x="50" y="290" width="30" height="36" rx="4" fill="#DBEAFE"/>
    <rect x="100" y="270" width="30" height="56" rx="4" fill="#DBEAFE"/>
    <rect x="150" y="280" width="30" height="46" rx="4" fill="#DBEAFE"/>
    <rect x="200" y="260" width="30" height="66" rx="4" fill="#DBEAFE"/>
    <rect x="250" y="250" width="30" height="76" rx="4" fill="#BFDBFE"/>
    <rect x="300" y="240" width="30" height="86" rx="4" fill="#7C3AED"/>
    <text x="48" y="326" font-size="8" fill="#94A3B8">Jan</text>
    <text x="98" y="326" font-size="8" fill="#94A3B8">Fev</text>
    <text x="148" y="326" font-size="8" fill="#94A3B8">Mar</text>
    <text x="198" y="326" font-size="8" fill="#94A3B8">Abr</text>
    <text x="248" y="326" font-size="8" fill="#94A3B8">Mai</text>
    <text x="298" y="326" font-size="8" fill="#94A3B8">Jun</text>

    <!-- Referrals table -->
    <text x="16" y="368" class="section">Últimas Indicações</text>
    <rect x="16" y="380" width="378" height="180" rx="8" fill="#F8FAFC" stroke="#E2E8F0"/>
    <rect x="16" y="380" width="378" height="24" rx="8" fill="#F1F5F9"/>
    <text x="28" y="396" font-size="9" font-weight="600" fill="#94A3B8">USUÁRIO</text>
    <text x="180" y="396" font-size="9" font-weight="600" fill="#94A3B8">DATA</text>
    <text x="280" y="396" font-size="9" font-weight="600" fill="#94A3B8">STATUS</text>
    <text x="360" y="396" font-size="9" font-weight="600" fill="#94A3B8">GANHO</text>
    <text x="28" y="422" font-size="10" fill="#334155">PedroH22</text>
    <text x="180" y="422" font-size="10" fill="#64748B">12/07</text>
    <rect x="270" y="412" width="52" height="16" rx="8" fill="#D1FAE5"/>
    <text x="296" y="423" text-anchor="middle" font-size="8" font-weight="600" fill="#059669">Ativo</text>
    <text x="360" y="422" font-size="10" font-weight="600" fill="#059669">+R$8</text>

    <text x="28" y="448" font-size="10" fill="#334155">AnaGamer</text>
    <text x="180" y="448" font-size="10" fill="#64748B">10/07</text>
    <rect x="270" y="438" width="52" height="16" rx="8" fill="#D1FAE5"/>
    <text x="296" y="449" text-anchor="middle" font-size="8" font-weight="600" fill="#059669">Ativo</text>
    <text x="360" y="448" font-size="10" font-weight="600" fill="#059669">+R$12</text>

    <text x="28" y="474" font-size="10" fill="#334155">RickPlay</text>
    <text x="180" y="474" font-size="10" fill="#64748B">08/07</text>
    <rect x="270" y="464" width="52" height="16" rx="8" fill="#FEF3C7"/>
    <text x="296" y="475" text-anchor="middle" font-size="8" font-weight="600" fill="#D97706">Pendente</text>
    <text x="360" y="474" font-size="10" font-weight="600" fill="#D97706">+R$5</text>
  </g>

  <!-- ==================== PAGE 5: /suporte-ia ==================== -->
  <g transform="translate(490, 750)">
    <rect width="410" height="620" rx="16" fill="white" filter="url(#shadow)"/>
    <rect width="410" height="48" rx="16" fill="#2563EB"/>
    <rect y="32" width="410" height="16" fill="#2563EB"/>
    <text x="205" y="30" text-anchor="middle" class="page-title" fill="white">05 — /suporte-ia</text>

    <!-- Chat header -->
    <rect x="16" y="64" width="378" height="52" rx="10" fill="#F8FAFC" stroke="#E2E8F0"/>
    <circle cx="48" cy="90" r="18" fill="#2563EB"/>
    <text x="48" y="95" text-anchor="middle" font-size="16" fill="white">🤖</text>
    <text x="74" y="84" font-size="12" font-weight="700" fill="#0F172A">PlayBot IA</text>
    <text x="74" y="100" font-size="9" fill="#059669">● Online</text>
    <rect x="340" y="78" width="40" height="24" rx="6" fill="#F1F5F9"/>
    <text x="360" y="94" text-anchor="middle" font-size="10">⋮</text>

    <!-- Chat messages -->
    <!-- Bot message -->
    <rect x="16" y="130" width="280" height="60" rx="12" fill="#EFF6FF"/>
    <text x="28" y="150" font-size="11" fill="#334155">Olá! Sou o PlayBot 🤖 Como posso</text>
    <text x="28" y="166" font-size="11" fill="#334155">ajudar você hoje?</text>
    <text x="28" y="184" font-size="8" fill="#94A3B8">14:32</text>

    <!-- User message -->
    <rect x="110" y="200" width="280" height="40" rx="12" fill="#2563EB"/>
    <text x="122" y="220" font-size="11" fill="white">Não recebi minha key do Elden Ring</text>
    <text x="356" y="234" font-size="8" fill="rgba(255,255,255,0.6)">14:33</text>

    <!-- Bot response -->
    <rect x="16" y="252" width="300" height="90" rx="12" fill="#EFF6FF"/>
    <text x="28" y="272" font-size="11" fill="#334155">Entendo! Vou verificar seu pedido.</text>
    <text x="28" y="290" font-size="11" fill="#334155">Encontrei o pedido PED-2845. O</text>
    <text x="28" y="308" font-size="11" fill="#334155">pagamento está pendente de confirmação.</text>
    <text x="28" y="334" font-size="8" fill="#94A3B8">14:33 • Verificado via IA</text>

    <!-- Quick actions -->
    <text x="16" y="364" class="section">Ações Rápidas</text>
    <g transform="translate(16, 376)">
      <rect width="180" height="40" rx="8" fill="#F8FAFC" stroke="#E2E8F0"/>
      <text x="90" y="24" text-anchor="middle" font-size="10" fill="#2563EB" font-weight="600">📋 Ver meus pedidos</text>
      <rect x="190" width="180" height="40" rx="8" fill="#F8FAFC" stroke="#E2E8F0"/>
      <text x="280" y="24" text-anchor="middle" font-size="10" fill="#2563EB" font-weight="600">💬 Falar com humano</text>
    </g>

    <!-- Input -->
    <rect x="16" y="440" width="378" height="48" rx="12" fill="#F8FAFC" stroke="#E2E8F0"/>
    <text x="32" y="468" font-size="11" fill="#94A3B8">Digite sua dúvida...</text>
    <rect x="338" y="448" width="44" height="32" rx="8" fill="#2563EB"/>
    <text x="360" y="468" text-anchor="middle" font-size="14" fill="white">↑</text>

    <!-- 3D avatar note -->
    <rect x="16" y="500" width="378" height="96" rx="10" fill="#FAF5FF" stroke="#E9D5FF"/>
    <text x="205" y="524" text-anchor="middle" font-size="10" font-weight="600" fill="#7C3AED">🤖 AVATAR 3D DO PLAYBOT</text>
    <text x="205" y="542" text-anchor="middle" font-size="9" fill="#7C3AED">Avatar isométrico 3D animado</text>
    <text x="205" y="558" text-anchor="middle" font-size="9" fill="#7C3AED">que reage às mensagens do user.</text>
    <text x="205" y="578" text-anchor="middle" font-size="9" fill="#94A3B8">React Three Fiber + Animações faciais</text>
  </g>

  <!-- ==================== PAGE 6: /blog (redesigned) ==================== -->
  <g transform="translate(940, 750)">
    <rect width="410" height="620" rx="16" fill="white" filter="url(#shadow)"/>
    <rect width="410" height="48" rx="16" fill="#2563EB"/>
    <rect y="32" width="410" height="16" fill="#2563EB"/>
    <text x="205" y="30" text-anchor="middle" class="page-title" fill="white">06 — /blog (Redesign)</text>

    <!-- Featured post -->
    <rect x="16" y="64" width="378" height="180" rx="12" fill="#E2E8F0"/>
    <rect x="16" y="180" width="378" height="64" rx="0" fill="rgba(0,0,0,0.6)"/>
    <rect x="28" y="186" width="52" height="20" rx="4" fill="#2563EB"/>
    <text x="54" y="200" text-anchor="middle" font-size="8" font-weight="600" fill="white">DESTAQUE</text>
    <text x="28" y="222" font-size="12" font-weight="700" fill="white">Black Myth: Wukong — Guia dos Chefes</text>
    <text x="28" y="238" font-size="9" fill="rgba(255,255,255,0.7)">8 min • Lucas Andrade • 12/07/26</text>

    <!-- Categories -->
    <g transform="translate(16, 260)">
      <rect width="60" height="24" rx="12" fill="#2563EB"/>
      <text x="30" y="16" text-anchor="middle" font-size="9" font-weight="600" fill="white">Tudo</text>
      <rect x="68" width="52" height="24" rx="12" fill="#F1F5F9"/>
      <text x="94" y="16" text-anchor="middle" font-size="9" fill="#64748B">Guias</text>
      <rect x="128" width="60" height="24" rx="12" fill="#F1F5F9"/>
      <text x="158" y="16" text-anchor="middle" font-size="9" fill="#64748B">Notícias</text>
      <rect x="196" width="52" height="24" rx="12" fill="#F1F5F9"/>
      <text x="222" y="16" text-anchor="middle" font-size="9" fill="#64748B">Dicas</text>
      <rect x="256" width="60" height="24" rx="12" fill="#F1F5F9"/>
      <text x="286" y="16" text-anchor="middle" font-size="9" fill="#64748B">Ranking</text>
    </g>

    <!-- Blog grid -->
    <g transform="translate(16, 296)">
      <rect width="180" height="140" rx="10" fill="#F8FAFC" stroke="#E2E8F0"/>
      <rect x="4" y="4" width="172" height="70" rx="6" fill="#E2E8F0"/>
      <text x="12" y="90" font-size="10" font-weight="700" fill="#0F172A">5 Dicas para Vender</text>
      <text x="12" y="104" font-size="10" font-weight="700" fill="#0F172A">com Segurança</text>
      <text x="12" y="122" font-size="8" fill="#94A3B8">5 min • Rafael Mendes</text>

      <rect x="190" width="180" height="140" rx="10" fill="#F8FAFC" stroke="#E2E8F0"/>
      <rect x="194" y="4" width="172" height="70" rx="6" fill="#E2E8F0"/>
      <text x="202" y="90" font-size="10" font-weight="700" fill="#0F172A">Elden Ring DLC</text>
      <text x="202" y="104" font-size="10" font-weight="700" fill="#0F172A">Novidades</text>
      <text x="202" y="122" font-size="8" fill="#94A3B8">6 min • Lucas Andrade</text>
    </g>

    <g transform="translate(16, 448)">
      <rect width="180" height="140" rx="10" fill="#F8FAFC" stroke="#E2E8F0"/>
      <rect x="4" y="4" width="172" height="70" rx="6" fill="#E2E8F0"/>
      <rect x="190" y="0" width="180" height="140" rx="10" fill="#F8FAFC" stroke="#E2E8F0"/>
      <rect x="194" y="4" width="172" height="70" rx="6" fill="#E2E8F0"/>
    </g>
  </g>

  <!-- ==================== PAGE 7: /depoimentos ==================== -->
  <g transform="translate(40, 1400)">
    <rect width="410" height="620" rx="16" fill="white" filter="url(#shadow)"/>
    <rect width="410" height="48" rx="16" fill="#2563EB"/>
    <rect y="32" width="410" height="16" fill="#2563EB"/>
    <text x="205" y="30" text-anchor="middle" class="page-title" fill="white">07 — /depoimentos</text>

    <text x="205" y="80" text-anchor="middle" font-size="18" font-weight="800" fill="#0F172A">O que dizem sobre a Playdex</text>
    <text x="205" y="100" text-anchor="middle" font-size="12" fill="#64748B">+4.500 avaliações de usuários reais</text>

    <!-- Video carousel -->
    <rect x="16" y="120" width="378" height="220" rx="12" fill="#0F172A"/>
    <!-- Video player mockup -->
    <circle cx="205" cy="220" r="30" fill="rgba(255,255,255,0.15)"/>
    <polygon points="195,208 195,232 218,220" fill="white"/>
    <circle cx="44" cy="310" r="16" fill="#E2E8F0"/>
    <text x="44" y="314" text-anchor="middle" font-size="10">🧑</text>
    <text x="68" y="306" font-size="10" font-weight="600" fill="white">Marina Costa</text>
    <text x="68" y="320" font-size="9" fill="rgba(255,255,255,0.6)">Comprou: Key Steam</text>

    <!-- Dots navigation -->
    <circle cx="185" cy="354" r="5" fill="#2563EB"/>
    <circle cx="200" cy="354" r="5" fill="#CBD5E1"/>
    <circle cx="215" cy="354" r="5" fill="#CBD5E1"/>
    <circle cx="230" cy="354" r="5" fill="#CBD5E1"/>

    <!-- Text reviews -->
    <g transform="translate(16, 374)">
      <rect width="378" height="80" rx="10" fill="#F8FAFC" stroke="#E2E8F0"/>
      <circle cx="28" cy="24" r="12" fill="#DBEAFE"/>
      <text x="28" y="28" text-anchor="middle" font-size="10">P</text>
      <text x="48" y="20" font-size="10" font-weight="600" fill="#0F172A">PedroH22</text>
      <text x="48" y="34" font-size="8" fill="#F59E0B">★★★★★</text>
      <text x="16" y="54" font-size="10" fill="#64748B">Conta veio exatamente como descrito. Super recomendo!</text>

      <rect y="90" width="378" height="80" rx="10" fill="#F8FAFC" stroke="#E2E8F0"/>
      <circle cx="28" cy="114" r="12" fill="#FEF3C7"/>
      <text x="28" y="118" text-anchor="middle" font-size="10">A</text>
      <text x="48" y="110" font-size="10" font-weight="600" fill="#0F172A">AnaGamer</text>
      <text x="48" y="124" font-size="8" fill="#F59E0B">★★★★★</text>
      <text x="16" y="144" font-size="10" fill="#64748B">Entrega automática em segundos. Produto perfeito!</text>
    </g>
  </g>

  <!-- ==================== PAGE 8: /onboarding ==================== -->
  <g transform="translate(490, 1400)">
    <rect width="410" height="620" rx="16" fill="white" filter="url(#shadow)"/>
    <rect width="410" height="48" rx="16" fill="#2563EB"/>
    <rect y="32" width="410" height="16" fill="#2563EB"/>
    <text x="205" y="30" text-anchor="middle" class="page-title" fill="white">08 — /onboarding</text>

    <!-- Step indicator -->
    <g transform="translate(80, 70)">
      <circle cx="0" cy="0" r="16" fill="#2563EB"/>
      <text x="0" y="5" text-anchor="middle" font-size="10" font-weight="700" fill="white">1</text>
      <rect x="20" y="-2" width="80" height="4" rx="2" fill="#2563EB"/>
      <circle cx="100" cy="0" r="16" fill="#DBEAFE" stroke="#2563EB"/>
      <text x="100" y="5" text-anchor="middle" font-size="10" font-weight="600" fill="#2563EB">2</text>
      <rect x="120" y="-2" width="80" height="4" rx="2" fill="#E2E8F0"/>
      <circle cx="200" cy="0" r="16" fill="#F1F5F9" stroke="#E2E8F0"/>
      <text x="200" y="5" text-anchor="middle" font-size="10" font-weight="600" fill="#94A3B8">3</text>
      <rect x="220" y="-2" width="80" height="4" rx="2" fill="#E2E8F0"/>
      <circle cx="300" cy="0" r="16" fill="#F1F5F9" stroke="#E2E8F0"/>
      <text x="300" y="5" text-anchor="middle" font-size="10" font-weight="600" fill="#94A3B8">4</text>
    </g>

    <!-- 3D illustration area -->
    <rect x="60" y="100" width="290" height="180" rx="16" fill="#EFF6FF" stroke="#BFDBFE"/>
    <text x="205" y="180" text-anchor="middle" font-size="40">🎮</text>
    <text x="205" y="210" text-anchor="middle" font-size="11" fill="#2563EB" font-weight="600">[ Animação 3D interativa ]</text>

    <!-- Content -->
    <text x="205" y="310" text-anchor="middle" font-size="20" font-weight="800" fill="#0F172A">Bem-vindo à Playdex!</text>
    <text x="205" y="336" text-anchor="middle" font-size="12" fill="#64748B">O marketplace mais seguro para comprar</text>
    <text x="205" y="354" text-anchor="middle" font-size="12" fill="#64748B">e vender ativos digitais de jogos.</text>

    <!-- Interest tags -->
    <text x="205" y="390" text-anchor="middle" font-size="11" font-weight="600" fill="#0F172A">O que mais te interessa?</text>
    <g transform="translate(40, 400)">
      <rect width="90" height="32" rx="16" fill="#EFF6FF" stroke="#2563EB"/>
      <text x="45" y="20" text-anchor="middle" font-size="10" font-weight="600" fill="#2563EB">🎮 Contas</text>
      <rect x="100" width="80" height="32" rx="16" fill="#F1F5F9" stroke="#E2E8F0"/>
      <text x="140" y="20" text-anchor="middle" font-size="10" fill="#64748B">🔑 Keys</text>
      <rect x="190" width="80" height="32" rx="16" fill="#F1F5F9" stroke="#E2E8F0"/>
      <text x="230" y="20" text-anchor="middle" font-size="10" fill="#64748B">💰 Gold</text>
      <rect x="280" width="80" height="32" rx="16" fill="#F1F5F9" stroke="#E2E8F0"/>
      <text x="320" y="20" text-anchor="middle" font-size="10" fill="#64748B">🎁 Gift</text>
    </g>
    <g transform="translate(70, 440)">
      <rect width="90" height="32" rx="16" fill="#F1F5F9" stroke="#E2E8F0"/>
      <text x="45" y="20" text-anchor="middle" font-size="10" fill="#64748B">🛠️ Serviços</text>
      <rect x="100" width="80" height="32" rx="16" fill="#F1F5F9" stroke="#E2E8F0"/>
      <text x="140" y="20" text-anchor="middle" font-size="10" fill="#64748B">📺 Assinaturas</text>
    </g>

    <!-- Button -->
    <rect x="80" y="500" width="250" height="48" rx="12" fill="#2563EB"/>
    <text x="205" y="528" text-anchor="middle" font-size="14" font-weight="700" fill="white">Continuar →</text>
    <text x="205" y="570" text-anchor="middle" font-size="10" fill="#94A3B8">Pular tour</text>
  </g>

  <!-- ==================== PAGE 9: /favoritos ==================== -->
  <g transform="translate(940, 1400)">
    <rect width="410" height="620" rx="16" fill="white" filter="url(#shadow)"/>
    <rect width="410" height="48" rx="16" fill="#2563EB"/>
    <rect y="32" width="410" height="16" fill="#2563EB"/>
    <text x="205" y="30" text-anchor="middle" class="page-title" fill="white">09 — /favoritos</text>

    <text x="16" y="74" font-size="16" font-weight="800" fill="#0F172A">Meus Favoritos</text>
    <text x="16" y="94" font-size="11" fill="#64748B">4 itens salvos • Arraste para reordenar</text>

    <!-- Drag handle items -->
    <rect x="16" y="110" width="378" height="80" rx="10" fill="#F8FAFC" stroke="#E2E8F0"/>
    <rect x="20" y="120" width="4" height="60" rx="2" fill="#E2E8F0"/>
    <rect x="32" y="118" width="56" height="56" rx="8" fill="#E2E8F0"/>
    <text x="60" y="150" text-anchor="middle" font-size="20">🎮</text>
    <text x="100" y="136" font-size="12" font-weight="700" fill="#0F172A">Conta Valorant Diamante</text>
    <text x="100" y="154" font-size="10" fill="#64748B">PixelKing • ⭐ 4.9</text>
    <text x="100" y="172" font-size="14" font-weight="800" fill="#2563EB">R$ 89,90</text>
    <text x="368" y="148" font-size="16" fill="#EF4444">♥</text>

    <rect x="16" y="200" width="378" height="80" rx="10" fill="#F8FAFC" stroke="#E2E8F0"/>
    <rect x="20" y="210" width="4" height="60" rx="2" fill="#E2E8F0"/>
    <rect x="32" y="208" width="56" height="56" rx="8" fill="#E2E8F0"/>
    <text x="60" y="240" text-anchor="middle" font-size="20">🔑</text>
    <text x="100" y="226" font-size="12" font-weight="700" fill="#0F172A">Key Steam Elden Ring</text>
    <text x="100" y="244" font-size="10" fill="#64748B">GameVault • ⭐ 4.8</text>
    <text x="100" y="262" font-size="14" font-weight="800" fill="#2563EB">R$ 149,90</text>
    <text x="368" y="238" font-size="16" fill="#EF4444">♥</text>

    <rect x="16" y="290" width="378" height="80" rx="10" fill="#F8FAFC" stroke="#E2E8F0"/>
    <rect x="20" y="300" width="4" height="60" rx="2" fill="#E2E8F0"/>
    <rect x="32" y="298" width="56" height="56" rx="8" fill="#E2E8F0"/>
    <text x="60" y="330" text-anchor="middle" font-size="20">💎</text>
    <text x="100" y="316" font-size="12" font-weight="700" fill="#0F172A">Game Pass Ultimate 1 Mês</text>
    <text x="100" y="334" font-size="10" fill="#64748B">PixelKing • ⭐ 4.9</text>
    <text x="100" y="352" font-size="14" font-weight="800" fill="#2563EB">R$ 14,90</text>
    <text x="368" y="328" font-size="16" fill="#EF4444">♥</text>

    <rect x="16" y="380" width="378" height="80" rx="10" fill="#F8FAFC" stroke="#E2E8F0"/>
    <rect x="20" y="390" width="4" height="60" rx="2" fill="#E2E8F0"/>
    <rect x="32" y="388" width="56" height="56" rx="8" fill="#E2E8F0"/>
    <text x="60" y="420" text-anchor="middle" font-size="20">💰</text>
    <text x="100" y="406" font-size="12" font-weight="700" fill="#0F172A">10K V-Bucks Fortnite</text>
    <text x="100" y="424" font-size="10" fill="#64748B">DiamondHands • ⭐ 5.0</text>
    <text x="100" y="442" font-size="14" font-weight="800" fill="#2563EB">R$ 34,90</text>
    <text x="368" y="418" font-size="16" fill="#EF4444">♥</text>

    <!-- Alert -->
    <rect x="16" y="480" width="378" height="52" rx="10" fill="#FEF3C7" stroke="#FDE68A"/>
    <text x="205" y="502" text-anchor="middle" font-size="10" fill="#92400E">🔔 Ative alertas de preço para ser notificado quando</text>
    <text x="205" y="518" text-anchor="middle" font-size="10" fill="#92400E">um favorito entrar em promoção</text>

    <!-- Buy all button -->
    <rect x="80" y="550" width="250" height="44" rx="10" fill="#2563EB"/>
    <text x="205" y="576" text-anchor="middle" font-size="12" font-weight="700" fill="white">Comprar Todos (4 itens)</text>
  </g>

  <!-- ==================== PAGE 10: /notificacoes ==================== -->
  <g transform="translate(40, 2050)">
    <rect width="410" height="620" rx="16" fill="white" filter="url(#shadow)"/>
    <rect width="410" height="48" rx="16" fill="#2563EB"/>
    <rect y="32" width="410" height="16" fill="#2563EB"/>
    <text x="205" y="30" text-anchor="middle" class="page-title" fill="white">10 — /notificacoes</text>

    <text x="16" y="74" font-size="16" font-weight="800" fill="#0F172A">Notificações</text>
    <rect x="290" y="58" width="100" height="26" rx="13" fill="#F1F5F9"/>
    <text x="340" y="75" text-anchor="middle" font-size="10" fill="#64748B">Marcar lidas</text>

    <!-- Today -->
    <text x="16" y="108" font-size="10" font-weight="700" fill="#94A3B8" letter-spacing="1">HOJE</text>

    <!-- Notification 1 - unread -->
    <rect x="16" y="118" width="378" height="64" rx="10" fill="#EFF6FF" stroke="#BFDBFE"/>
    <circle cx="44" cy="150" r="16" fill="#2563EB"/>
    <text x="44" y="154" text-anchor="middle" font-size="12" fill="white">✓</text>
    <text x="68" y="142" font-size="11" font-weight="700" fill="#0F172A">Pedido entregue!</text>
    <text x="68" y="158" font-size="9" fill="#64748B">Sua key Steam Elden Ring foi entregue.</text>
    <text x="68" y="174" font-size="8" fill="#94A3B8">há 30 min</text>
    <circle cx="380" cy="138" r="4" fill="#2563EB"/>

    <!-- Notification 2 - unread -->
    <rect x="16" y="190" width="378" height="64" rx="10" fill="#EFF6FF" stroke="#BFDBFE"/>
    <circle cx="44" cy="222" r="16" fill="#F59E0B"/>
    <text x="44" y="226" text-anchor="middle" font-size="12" fill="white">🔥</text>
    <text x="68" y="214" font-size="11" font-weight="700" fill="#0F172A">Oferta Relâmpago!</text>
    <text x="68" y="230" font-size="9" fill="#64748B">Game Pass Ultimate por R$9,90 — só hoje!</text>
    <text x="68" y="246" font-size="8" fill="#94A3B8">há 1h</text>
    <circle cx="380" cy="210" r="4" fill="#2563EB"/>

    <!-- Notification 3 - read -->
    <rect x="16" y="262" width="378" height="64" rx="10" fill="white" stroke="#E2E8F0"/>
    <circle cx="44" cy="294" r="16" fill="#F1F5F9"/>
    <text x="44" y="298" text-anchor="middle" font-size="12">💬</text>
    <text x="68" y="286" font-size="11" font-weight="600" fill="#334155">Nova mensagem</text>
    <text x="68" y="302" font-size="9" fill="#64748B">PixelKing enviou uma mensagem.</text>
    <text x="68" y="318" font-size="8" fill="#94A3B8">há 3h</text>

    <!-- Yesterday -->
    <text x="16" y="350" font-size="10" font-weight="700" fill="#94A3B8" letter-spacing="1">ONTEM</text>

    <rect x="16" y="360" width="378" height="64" rx="10" fill="white" stroke="#E2E8F0"/>
    <circle cx="44" cy="392" r="16" fill="#F1F5F9"/>
    <text x="44" y="396" text-anchor="middle" font-size="12">💰</text>
    <text x="68" y="384" font-size="11" font-weight="600" fill="#334155">Venda realizada</text>
    <text x="68" y="400" font-size="9" fill="#64748B">Você vendeu "Conta Minecraft" por R$24,90.</text>
    <text x="68" y="416" font-size="8" fill="#94A3B8">ontem às 18:30</text>

    <rect x="16" y="432" width="378" height="64" rx="10" fill="white" stroke="#E2E8F0"/>
    <circle cx="44" cy="464" r="16" fill="#F1F5F9"/>
    <text x="44" y="468" text-anchor="middle" font-size="12">⭐</text>
    <text x="68" y="456" font-size="11" font-weight="600" fill="#334155">+50 PD Points</text>
    <text x="68" y="472" font-size="9" fill="#64748B">Você recebeu PD Points pela sua compra.</text>
    <text x="68" y="488" font-size="8" fill="#94A3B8">ontem às 14:15</text>

    <!-- Settings link -->
    <rect x="16" y="520" width="378" height="44" rx="10" fill="#F8FAFC" stroke="#E2E8F0"/>
    <text x="205" y="546" text-anchor="middle" font-size="10" fill="#64748B">⚙️ Configurar preferências de notificação</text>
  </g>

  <!-- ==================== PAGE 11: /configuracoes ==================== -->
  <g transform="translate(490, 2050)">
    <rect width="410" height="620" rx="16" fill="white" filter="url(#shadow)"/>
    <rect width="410" height="48" rx="16" fill="#2563EB"/>
    <rect y="32" width="410" height="16" fill="#2563EB"/>
    <text x="205" y="30" text-anchor="middle" class="page-title" fill="white">11 — /configuracoes</text>

    <!-- Profile section -->
    <rect x="16" y="64" width="378" height="80" rx="12" fill="#F8FAFC" stroke="#E2E8F0"/>
    <circle cx="56" cy="104" r="24" fill="#2563EB"/>
    <text x="56" y="110" text-anchor="middle" font-size="18" fill="white">L</text>
    <text x="90" y="96" font-size="13" font-weight="700" fill="#0F172A">LucasGamer</text>
    <text x="90" y="114" font-size="10" fill="#64748B">lucas@email.com • Membro desde 2023</text>
    <rect x="340" y="90" width="40" height="24" rx="6" fill="#F1F5F9"/>
    <text x="360" y="106" text-anchor="middle" font-size="10">✏️</text>

    <!-- Settings groups -->
    <!-- Account -->
    <text x="16" y="170" class="section">Conta</text>
    <rect x="16" y="180" width="378" height="160" rx="10" fill="#F8FAFC" stroke="#E2E8F0"/>
    <g transform="translate(28, 192)">
      <text font-size="11" font-weight="600" fill="#0F172A">Nome de usuário</text>
      <text y="16" font-size="10" fill="#64748B">LucasGamer</text>
      <line x1="0" y1="28" x2="350" y2="28" stroke="#E2E8F0"/>
      <text y="46" font-size="11" font-weight="600" fill="#0F172A">E-mail</text>
      <text y="62" font-size="10" fill="#64748B">lucas@email.com ✓ Verificado</text>
      <line x1="0" y1="74" x2="350" y2="74" stroke="#E2E8F0"/>
      <text y="92" font-size="11" font-weight="600" fill="#0F172A">Senha</text>
      <text y="108" font-size="10" fill="#64748B">••••••••  [Alterar senha]</text>
    </g>

    <!-- Notifications -->
    <text x="16" y="362" class="section">Notificações</text>
    <rect x="16" y="372" width="378" height="120" rx="10" fill="#F8FAFC" stroke="#E2E8F0"/>
    <g transform="translate(28, 386)">
      <rect width="40" height="22" rx="11" fill="#2563EB"/>
      <circle cx="29" cy="11" r="8" fill="white"/>
      <text x="50" y="15" font-size="11" fill="#0F172A">Push notifications</text>
      <line x1="0" y1="28" x2="350" y2="28" stroke="#E2E8F0"/>
      <rect y="34" width="40" height="22" rx="11" fill="#2563EB"/>
      <circle cx="29" cy="45" r="8" fill="white"/>
      <text x="50" y="49" font-size="11" fill="#0F172A">E-mail marketing</text>
      <line x1="0" y1="62" x2="350" y2="62" stroke="#E2E8F0"/>
      <rect y="68" width="40" height="22" rx="11" fill="#E2E8F0"/>
      <circle cx="11" cy="79" r="8" fill="white"/>
      <text x="50" y="83" font-size="11" fill="#0F172A">Alertas de preço</text>
    </g>

    <!-- Theme -->
    <text x="16" y="514" class="section">Aparência</text>
    <rect x="16" y="524" width="378" height="44" rx="10" fill="#F8FAFC" stroke="#E2E8F0"/>
    <text x="28" y="550" font-size="11" font-weight="600" fill="#0F172A">Tema</text>
    <g transform="translate(240, 530)">
      <rect width="36" height="28" rx="6" fill="white" stroke="#E2E8F0"/>
      <text x="18" y="20" text-anchor="middle" font-size="12">☀️</text>
      <rect x="42" width="36" height="28" rx="6" fill="#0F172A" stroke="#334155"/>
      <text x="60" y="20" text-anchor="middle" font-size="12">🌙</text>
      <rect x="84" width="36" height="28" rx="6" fill="#F1F5F9" stroke="#E2E8F0"/>
      <text x="102" y="20" text-anchor="middle" font-size="12">💻</text>
    </g>

    <!-- Danger zone -->
    <text x="16" y="590" font-size="9" font-weight="600" fill="#EF4444" letter-spacing="1">ZONA DE PERIGO</text>
    <rect x="16" y="600" width="378" height="1" fill="#FEE2E2"/>
  </g>

  <!-- ==================== PAGE 12: /404 ==================== -->
  <g transform="translate(940, 2050)">
    <rect width="410" height="620" rx="16" fill="#0F172A" filter="url(#shadow)"/>
    <rect width="410" height="48" rx="16" fill="#1E293B"/>
    <rect y="32" width="410" height="16" fill="#1E293B"/>
    <text x="205" y="30" text-anchor="middle" class="page-title" fill="#60A5FA">12 — /404 (3D)</text>

    <!-- 3D area -->
    <rect x="40" y="70" width="330" height="240" rx="16" fill="#1E293B" stroke="#334155"/>
    <text x="205" y="170" text-anchor="middle" font-size="80" font-weight="900" fill="none" stroke="#2563EB" stroke-width="2">404</text>
    <text x="205" y="230" text-anchor="middle" font-size="10" fill="#60A5FA">[ Cena 3D animada com partículas ]</text>
    <text x="205" y="250" text-anchor="middle" font-size="10" fill="#60A5FA">Texto "404" flutuando em 3D</text>
    <text x="205" y="270" text-anchor="middle" font-size="10" fill="#60A5FA">com efeito glitch e partículas</text>
    <text x="205" y="290" text-anchor="middle" font-size="10" fill="#475569">React Three Fiber + Float + Particles</text>

    <!-- Message -->
    <text x="205" y="340" text-anchor="middle" font-size="22" font-weight="800" fill="white">Página não encontrada</text>
    <text x="205" y="368" text-anchor="middle" font-size="13" fill="#94A3B8">Parece que você se perdeu no universo</text>
    <text x="205" y="388" text-anchor="middle" font-size="13" fill="#94A3B8">dos games. Vamos te ajudar a voltar!</text>

    <!-- Buttons -->
    <rect x="80" y="420" width="250" height="48" rx="12" fill="#2563EB"/>
    <text x="205" y="448" text-anchor="middle" font-size="14" font-weight="700" fill="white">🏠 Voltar ao Início</text>

    <rect x="80" y="480" width="250" height="44" rx="12" fill="transparent" stroke="#334155" stroke-width="2"/>
    <text x="205" y="506" text-anchor="middle" font-size="13" font-weight="600" fill="#94A3B8">🔍 Explorar Catálogo</text>

    <!-- Fun suggestion -->
    <rect x="60" y="544" width="290" height="52" rx="10" fill="#1E293B" stroke="#334155"/>
    <text x="205" y="566" text-anchor="middle" font-size="10" fill="#60A5FA">💡 Enquanto isso, que tal jogar um</text>
    <text x="205" y="582" text-anchor="middle" font-size="10" fill="#60A5FA">mini-game de raspagem de moedas?</text>
  </g>

  <!-- Footer -->
  <rect y="2700" width="1400" height="60" fill="#0F172A"/>
  <text x="700" y="635" text-anchor="middle" font-size="12" fill="#475569" transform="translate(0, 2100)">PLAYDEX • Wireframes v2.0 • 12 Páginas Novas • Aguardando Aprovação</text>
</svg>
